<?xml version="1.0" encoding="utf-8"?>
<!-- Generator: Adobe Illustrator 19.0.0, SVG Export Plug-In . SVG Version: 6.00 Build 0)  -->
<svg version="1.1" id="Layer_2" xmlns="http://www.w3.org/2000/svg" xmlns:xlink="http://www.w3.org/1999/xlink" x="0px" y="0px"
	 viewBox="-204 433 150 96" style="enable-background:new -204 433 150 96;" xml:space="preserve">
<style type="text/css">
	.st0{fill:#FFCC05;}
	.st1{fill:none;stroke:#FFCC05;stroke-miterlimit:10;}
</style>
<g id="XMLID_1519_">
	<g id="XMLID_1471_">
		<path id="XMLID_1525_" class="st0" d="M-163.7,436c0.1,0,0.2,0.1,0.2,0.2v36.7c0,0.1-0.1,0.2-0.2,0.2h-36.7
			c-0.1,0-0.2-0.1-0.2-0.2v-36.7c0-0.1,0.1-0.2,0.2-0.2H-163.7 M-163.7,433h-36.7c-1.7,0-3.2,1.5-3.2,3.2v36.7
			c0,1.8,1.5,3.2,3.2,3.2h36.7c1.8,0,3.2-1.5,3.2-3.2v-36.7C-160.4,434.5-161.9,433-163.7,433L-163.7,433z"/>
	</g>
	<g id="XMLID_1468_">
		<path id="XMLID_1528_" class="st0" d="M-56.9,488.8c0.1,0,0.2,0.1,0.2,0.2v36.7c0,0.1-0.1,0.2-0.2,0.2h-36.7
			c-0.1,0-0.2-0.1-0.2-0.2V489c0-0.1,0.1-0.2,0.2-0.2H-56.9 M-56.9,485.8h-36.7c-1.8,0-3.2,1.5-3.2,3.2v36.7c0,1.8,1.5,3.2,3.2,3.2
			h36.7c1.8,0,3.2-1.5,3.2-3.2V489C-53.7,487.2-55.2,485.8-56.9,485.8L-56.9,485.8z"/>
	</g>
	<g id="XMLID_1458_">
		<path id="XMLID_1461_" class="st0" d="M-167.5,461.5c0-0.1-0.1-0.3-0.2-0.4c-1.2-1.3-2.5-2.5-3.7-3.8c-0.2-0.2-0.3-0.2-0.5-0.2
			c-3.9,0-7.9,0-11.8,0c-0.3,0-0.4-0.1-0.5-0.3c-1.8-3.7-3.7-7.3-5.5-11c-0.2-0.4-0.4-0.7-0.6-1.2c-0.1,0.1-0.1,0.2-0.2,0.3
			c-2,4-4,8.1-6,12.1c-0.1,0.1,0.1,17.8,0.1,17.8s19.2,0,28.9,0c0,0,0-0.7,0-0.8C-167.5,470.1-167.5,465.5-167.5,461.5z
			 M-187.3,472.9c-2,0-4.1,0-6.2,0c0,0,0-0.3,0-0.4c0-1.4,0-2.8,0-4.1c0-0.6,0.1-1.3,0.2-1.9c0.3-1.3,1.1-2.1,2.2-2.8
			c0.5-0.3,0.9-0.3,1.4,0c1.4,0.9,2.3,2.2,2.4,3.9C-187.3,469.3-187.3,470.9-187.3,472.9z M-177.9,468.9c-1,0-2.1,0-3.1,0
			c0,0,0,0.2,0,0.1c0-1.3,0-2.5,0-3.8s0.7-2.1,1.6-2.9c0.8,0.8,1.5,1.3,1.5,2.4C-177.9,466.1-177.9,467.9-177.9,468.9z
			 M-171.7,468.9c-1,0-2.1,0-3.1,0c0-1,0-2.9,0-4.5c0-0.9,0.7-1.7,1.5-2.3c0.8,0.7,1.5,1.3,1.5,2.5
			C-171.6,466.1-171.7,467.9-171.7,468.9z"/>
		<line id="XMLID_1460_" class="st1" x1="-190.5" y1="446.9" x2="-190.5" y2="439.9"/>
		<line id="XMLID_1459_" class="st1" x1="-192" y1="442.4" x2="-189" y2="442.4"/>
	</g>
	<g id="XMLID_1450_">
		<path id="XMLID_1453_" class="st0" d="M-60.3,514.4c0-0.1-0.1-0.3-0.2-0.4c-1.2-1.3-2.5-2.5-3.7-3.8c-0.2-0.2-0.3-0.2-0.5-0.2
			c-3.9,0-7.9,0-11.8,0c-0.3,0-0.4-0.1-0.5-0.3c-1.8-3.7-3.7-7.3-5.5-11c-0.2-0.4-0.4-0.7-0.6-1.2c-0.1,0.1-0.1,0.2-0.2,0.3
			c-2,4-4,8.2-6,12.2c-0.1,0.1,0.1,17.8,0.1,17.8s19.2,0,28.9,0c0,0,0-0.7,0-0.8C-60.3,523.1-60.3,518.4-60.3,514.4z M-80.1,524.9
			c-2,0-4.1,0-6.2,0c0,0,0,0.2,0,0.1c0-1.4,0-2.5,0-3.9c0-0.6,0.1-1.2,0.2-1.8c0.3-1.3,1.1-2.1,2.2-2.7c0.5-0.3,0.9-0.3,1.4,0
			c1.4,0.9,2.3,1.7,2.4,3.4C-80.1,521.7-80.1,523.9-80.1,524.9z M-70.7,522.9c-1,0-2.1,0-3.1,0v-0.4c0-1.3,0-2.8,0-4.1
			s0.7-2.2,1.6-3.1c0.8,0.8,1.5,1.8,1.5,2.9C-70.7,519.6-70.7,520.9-70.7,522.9z M-64.5,522.9c-1,0-2.1,0-3.1,0c0-2,0-3.4,0-5
			c0-0.9,0.7-2,1.5-2.5c0.8,0.7,1.5,1.7,1.5,2.9C-64.4,519.7-64.5,520.9-64.5,522.9z"/>
		<line id="XMLID_1452_" class="st1" x1="-83.5" y1="500.9" x2="-83.5" y2="492.9"/>
		<line id="XMLID_1451_" class="st1" x1="-85" y1="494.4" x2="-82" y2="494.4"/>
	</g>
	<g id="XMLID_1480_">
		<path id="XMLID_1481_" class="st0" d="M-124.3,452.8L-124.3,452.8c-0.1,0.1-0.2,0.2-0.4,0.3c0,0-0.1,0.1-0.2,0.1l0,0
			c0,0,0.1,0.1,0.3,0C-124.3,453.1-124.3,453-124.3,452.8L-124.3,452.8z"/>
		<path id="XMLID_1485_" class="st0" d="M-124.5,452.2v-0.1c0,0-0.3-0.1-0.6-0.1l0,0l0,0l0,0l0,0c-0.1,0-0.1,0-0.1,0s0,0.1,0,0.2
			s0.3,0.2,0.5,0.1C-124.6,452.3-124.5,452.3-124.5,452.2z"/>
		<path id="XMLID_1486_" class="st0" d="M-127,456.3c-0.1-0.2-0.1-0.3-0.2-0.3h-0.1c0,0,0,0.1,0,0.2s0.1,0.2,0.1,0.2s0,0,0.1,0
			c0.1,0.1,0.2,0.1,0.4,0.1c0,0-0.1-0.1-0.1-0.2C-127,456.4-127,456.3-127,456.3z"/>
		<path id="XMLID_1489_" class="st0" d="M-121,450.9h-14v6h14V450.9z M-134.5,452.5c0.1-0.2,0.2-0.2,0.3-0.3c0.1,0,0.2,0,0.3,0.1
			c0,0,0,0,0.1,0.1c0,0.1,0.1,0.1,0.2,0.2h0.1c0,0,0,0,0-0.1s0-0.2,0.1-0.2h0.1l0,0c0-0.1,0-0.3-0.1-0.3v-0.1h0.1
			c0.3,0.1,0.3,0.4,0.3,0.5c0.1,0.1,0.1,0.1,0.2,0.2c0,0.1,0,0.2-0.1,0.3c-0.1,0.1-0.1,0.2-0.1,0.3c0,0.1,0.1,0.2,0.3,0.3
			s0.4,0.1,0.6,0.2c0.2,0,0.3,0,0.4,0.1v0.1c0,0.1-0.1,0.2-0.2,0.3c-0.1,0.1-0.2,0.1-0.2,0.2c-0.1,0.1-0.2,0.1-0.2,0.1s0,0-0.1,0
			s-0.1-0.1-0.1-0.1s0-0.1,0.1-0.1l0,0c0,0,0,0,0-0.1c-0.1-0.1-0.3-0.1-0.4-0.1c0,0,0,0-0.1,0c0,0.1,0,0.1,0.1,0.1l0.1,0.1
			c0,0,0,0.1-0.1,0.1c-0.1,0.1-0.2,0.1-0.3,0.1c0,0-0.1-0.1-0.1-0.2c0,0,0,0,0-0.1c0,0,0,0-0.1,0h-0.1c-0.1,0-0.2-0.1-0.2-0.1
			c0-0.1,0-0.1,0-0.2s0.1-0.1,0.1-0.2l0,0c0,0-0.1,0-0.1-0.1l0,0l0,0c-0.1,0.1-0.2,0.1-0.4,0.1l0,0c-0.1,0-0.1,0.2-0.1,0.3v0.1V454
			c-0.2-0.2-0.2-0.5-0.1-0.6v-0.1c0-0.1,0.1-0.2,0.2-0.3c0-0.1,0.1-0.2,0.1-0.2s-0.1-0.1-0.2-0.1c-0.1,0-0.1,0-0.1,0
			c-0.1,0.1-0.2,0.1-0.3,0C-134.5,452.8-134.6,452.7-134.5,452.5z M-122,452.8c-0.2,0.1-0.4,0.1-0.5,0c-0.1,0-0.1-0.1-0.1-0.2
			c-0.1,0-0.2,0-0.3,0h-0.1v-0.1c0-0.1,0-0.1,0-0.1s-0.1,0-0.2,0c-0.2,0-0.3,0-0.3,0.1s0,0.2,0,0.3c0.1,0.2,0.3,0.1,0.3,0
			c0,0,0,0,0.1,0c0,0,0,0,0,0.1s0,0.3-0.2,0.4c-0.1,0-0.1,0-0.1,0.1l0,0c0,0-0.1,0.1-0.2,0.1s-0.1-0.1-0.2-0.1
			c-0.1-0.1-0.1-0.1-0.2-0.1s-0.1,0.1-0.2,0.2s-0.1,0.2-0.2,0.2s-0.3,0.1-0.7,0c-0.3-0.1-0.8,0.1-0.8,0.2c0,0,0,0,0,0.1v0.1
			c0,0,0.1,0.1,0.6,0.1s0.5,0,0.5,0s0-0.1,0.1-0.1s0.1-0.1,0.1-0.1v-0.1h0.1l0,0c0,0.1,0.1,0.4-0.1,0.5c0.1,0,0.1,0,0.2,0
			s0.4-0.3,0.5-0.4c0,0,0-0.1,0.1,0c0,0,0.1,0,0.1,0.1c0,0.2,0,0.3-0.1,0.5c0,0.1,0,0.2,0,0.2c0.1,0,0.2,0,0.3,0
			c0.1,0,0.1-0.1,0.2-0.2c0.1-0.2,0.2-0.4,0.2-0.4s0-0.1,0.1-0.1h0.1c0,0,0.2,0.4,0,0.6c-0.1,0.1,0,0.2,0,0.2s0.1,0,0.2,0
			c0.2-0.1,0.1-0.3,0.1-0.3v-0.1h0.1c0,0,0.2,0.2,0.2,0.5s0,0.3,0.1,0.3s0.2,0.1,0.2,0.2v0.1l0,0c0.1,0.1,0,0.2,0,0.3c0,0,0,0,0,0.1
			v0.1c0,0.1,0,0.1,0,0.1s-0.1,0-0.1-0.1s-0.1-0.1-0.1-0.2c-0.1,0-0.1-0.1-0.1-0.1v-0.1c-0.1,0-0.2,0.1-0.3,0.1c0,0-0.1,0.1,0,0.2
			c0,0.2-0.1,0.5-0.2,0.6l-0.1,0.1c-0.1,0-0.1-0.1-0.1-0.2s0-0.1-0.1-0.1c0,0-0.1,0-0.1,0.2v0.1c0,0.1-0.1,0.2-0.2,0.2s-0.1,0-0.2,0
			c-0.3,0.1-0.4,0.1-0.4,0.1h-0.1v-0.1c0.1-0.1,0-0.2,0-0.2c-0.1,0-0.1-0.1-0.2-0.1s-0.1-0.1-0.1-0.2s0.1-0.2,0.2-0.2
			s0.3-0.2,0.2-0.4c0-0.1-0.1-0.2-0.1-0.3h-0.1h-0.1h-0.1c-0.1,0-0.1,0.1-0.1,0v-0.1c0-0.1,0.1-0.1,0.1-0.2v-0.1
			c-0.1,0-0.1-0.1-0.1-0.1s0,0-0.1,0s-0.3,0-0.3,0s0,0.1,0,0.2c0,0.4-0.1,0.5-0.3,0.7h-0.1c0,0,0,0,0-0.1s0-0.1-0.1-0.2
			c0,0-0.1,0-0.3,0.3c-0.1,0.1-0.2,0.2-0.3,0.3h-0.1v-0.1c0.1,0.1,0.1-0.1,0.1-0.1l0,0c-0.1,0-0.1,0.1-0.2,0.2s-0.1,0.2-0.2,0.2
			c0,0-0.1,0-0.1,0.1c-0.1,0.1-0.1,0.1-0.2,0.1l0,0c-0.3,0.2-0.6,0.2-0.8,0.1c-0.2,0-0.3-0.1-0.4-0.4c0-0.1-0.1-0.2-0.2-0.2
			c-0.2,0-0.4,0.2-0.4,0.3s-0.1,0.1-0.1,0.2v0.1c0,0.1,0.1,0.3,0.2,0.3l0.1,0.1h-0.1c-0.3,0-0.5-0.2-0.6-0.4c-0.3,0-0.4-0.1-0.5-0.3
			c0-0.2,0-0.3,0-0.4c0.1-0.1,0.2-0.1,0.4-0.1c0.3,0,0.4,0,0.4,0c0-0.1,0-0.1,0-0.2c0.1,0,0.1,0,0.2,0c0.1,0,0.4,0.1,0.6,0l0,0
			c0-0.1,0-0.3-0.1-0.4l0,0c-0.1,0-0.2,0-0.2,0.1l0,0c0,0.1-0.1,0.1-0.2,0.1c-0.1,0-0.2,0.1-0.2,0.1l0,0l0,0c-0.1-0.1,0-0.3,0-0.3
			c0-0.1,0-0.1,0-0.2s0.1-0.1,0.2-0.2c0.1,0,0.4-0.2,0.6-0.3s0.3-0.2,0.4-0.2c0.1-0.1,0.2,0,0.3,0.1c0.1,0.1,0.2,0.1,0.3,0.1
			c0.2,0,0.4,0,0.4,0.1c0,0,0,0.1,0,0.2s-0.1,0.1-0.2,0.2s-0.2,0.2-0.2,0.3c0.1,0.2,0.3,0.6,0.5,0.6l0,0c0.2,0,0.3-0.1,0.4-0.3
			c0-0.2-0.1-1.1-0.6-1.4c-0.6-0.3-1.2,0-1.4,0.2c-0.1,0.1-0.5,0.3-0.6,0.2v-0.1l-0.1,0.1c-0.1,0.1-0.2,0.1-0.2,0.1
			c-0.1,0-0.1,0-0.2,0l0,0c0,0.1,0.1,0.2,0.1,0.3s0.1,0.1,0.1,0.2c0,0,0,0,0.1,0c0,0,0.1,0,0.1,0.1s0,0.1-0.1,0.2s-0.4,0-0.6-0.1
			c-0.1-0.1-0.3-0.2-0.4-0.1c-0.1,0-0.1,0.3,0,0.6v0.1h-0.1c-0.3-0.3-0.6-0.6-0.7-0.6c-0.1,0-0.1,0.4-0.1,0.8c0,0,0,0.1-0.1,0.1
			h-0.1c-0.1-0.2-0.3-0.6-0.4-0.7c-0.1,0-0.1-0.1-0.1,0l-0.1,0.1c0,0.1,0,0.2,0.1,0.3l0,0c0.1,0.1,0.1,0.2,0.1,0.2s0,0.1-0.1,0.1
			s-0.2,0-0.3-0.1c-0.3-0.3-0.4-0.3-0.5-0.3l0,0v0.1c0,0.1,0,0.1,0,0.2c0,0.2-0.1,0.3-0.2,0.3c0,0.1-0.1,0.3-0.3,0.4h-0.1v-0.1
			c0,0,0.1-0.1,0.1-0.3h-0.1c-0.1-0.1-0.1-0.2-0.1-0.2l0,0c0,0,0,0-0.2,0h-0.1c-0.2,0-0.3,0-0.4,0.1c-0.1,0.1-0.2,0.3-0.3,0.2
			l-0.1,0.1l0,0c-0.1,0-0.2,0-0.3,0.1h-0.1v-0.1c0-0.2,0.1-0.4,0.2-0.4c0-0.1,0-0.2,0-0.3s0.1-0.1,0.2-0.1h0.1h0.1l0,0l0,0
			c0,0-0.2-0.1-0.4-0.1c-0.1,0-0.2,0-0.3-0.1c0,0-0.1-0.1-0.1-0.2v-0.1c-0.1,0-0.2,0.1-0.2,0.1h-0.1v-0.1c0.1-0.3,0.4-0.4,0.6-0.3
			c0.1,0,0.1,0.1,0.1,0.1c0.1,0,0.2,0,0.3,0.1c0,0.1,0.1,0,0.1,0l0.1-0.1c-0.1-0.2-0.1-0.3-0.1-0.4s0.1-0.1,0.1-0.1v-0.1
			c0-0.1-0.1-0.2-0.2-0.3l-0.1-0.1h0.1c0.2,0,0.3,0.1,0.4,0.2c0.1,0.1,0.1,0.1,0.1,0.2c0.1,0,0.1,0.1,0.2,0.2
			c0.2,0.4,0.4,0.3,0.5,0.2c0,0,0.1-0.1,0.1-0.3c0-0.1,0-0.1,0-0.2s0.1-0.1,0.3-0.1c0.1,0,0.3,0,0.4,0s0.1-0.1,0.1-0.4l0,0V454
			c0,0,0,0,0.1,0c0,0,0.1,0,0.2-0.1l0.1-0.1c0-0.1-0.1-0.2-0.2-0.2c-0.1-0.2-0.2-0.2-0.2-0.3c0,0,0-0.1,0.1-0.1s0.2,0,0.4,0.2
			c0.1,0.1,0.2,0.2,0.3,0.2s0.1,0,0.1,0s0-0.1-0.1-0.1c-0.3-0.1-0.5-0.2-0.5-0.4V453c0.1,0,0.1,0,0.2,0c0.1,0,0.2,0.1,0.4,0.1
			c0.1,0,0.1,0,0.1-0.1s0-0.3-0.1-0.4s-0.3-0.1-0.5-0.1c-0.3,0-0.7-0.1-1.1-0.3c-0.5-0.4-0.8-1-0.9-1.3c0-0.1,0.1-0.3,0.2-0.3
			c0.2,0,0.5,0.1,0.6,0.5c0.1,0.5,0.6,0.9,1,0.9c0.1,0,0.3,0,0.3-0.1c0.1,0,0.1-0.1,0.1-0.1c0-0.1,0-0.1-0.1-0.2c0,0-0.1,0-0.2,0
			c-0.2,0-0.5,0-0.5-0.4c0-0.2,0.2-0.2,0.4-0.2c0.1,0,0.1,0,0.2,0c0,0,0,0,0-0.1s0-0.1,0.1-0.2s0.4-0.1,0.5-0.1h0.1h0.1
			c0,0,0.1-0.1,0.2-0.1c0.3,0,0.3,0.4,0.3,0.6v0.1l0,0h0.1c0,0,0.2,0.1,0.1,0.3c0,0.1,0,0.1,0.1,0.1s0.1,0.1,0.1,0.2
			s-0.1,0.2-0.3,0.1c-0.1,0-0.2,0-0.2,0s0,0.1,0,0.2l0,0c0,0.1,0.1,0.2,0.6,0.3c0.1,0,0.2,0.1,0.2,0.2s-0.1,0.3-0.3,0.4
			c-0.1,0.1-0.1,0.1-0.1,0.1c0,0.1-0.1,0.1-0.2,0.1c-0.1,0-0.1,0-0.1,0s0,0,0,0.1c0.1,0.1,0.1,0.2,0.2,0.4c0,0.1,0.1,0.2,0.1,0.3
			s0.2,0,0.3,0l0,0h0.1l0.1-0.1c0.4-0.5,1.2-0.9,1.4-0.9c0.2,0,0.3,0,0.4,0.1c0.1,0,0.2,0.1,0.3,0.1c0.2,0,0.6-0.2,0.9-0.3l0.2-0.1
			c0.2-0.1,0.5-0.3,0.5-0.3l0,0c-0.1,0-0.3,0-0.4,0s-0.2-0.2-0.2-0.2s0-0.1-0.1-0.1c0,0,0,0,0,0.1s0,0.1-0.1,0.1c0,0,0-0.1-0.1,0
			c-0.4,0.3-0.6,0.3-0.7,0.3l0,0c-0.1,0-0.2,0-0.2-0.1s-0.1-0.1-0.1-0.1c-0.1,0-0.4,0.1-0.5,0.1h-0.1v-0.1c0-0.1,0.1-0.2,0.1-0.3
			l0,0c-0.1,0-0.3,0-0.4,0.1c-0.1,0-0.1,0.1-0.1,0.1c0,0.1,0,0.1,0,0.1v0.1h-0.1c0,0-0.2-0.1-0.3-0.3c0-0.1,0-0.4,0.1-0.5
			c0.1-0.2,0.2-0.3,0.3-0.3l0,0c0,0,0,0.2,0,0.1s0-0.1-0.1-0.1c-0.1-0.1-0.3,0-0.4,0h-0.1v-0.1c0.2-0.3,0.4-0.5,0.6-0.4
			c0.1,0,0.1,0.1,0.2,0.2c0.1,0.1,0.2,0.3,0.3,0.3s0.2-0.1,0.2-0.2s0-0.2-0.1-0.3c0,0,0,0,0-0.1l0,0c0.2-0.1,0.3-0.1,0.4,0
			c0.1,0,0.1,0.1,0.1,0.3c0,0.1,0,0.1-0.1,0.2v0.1l0,0c0.2,0,0.2,0,0.2,0l0.1,0.1c0,0,0,0.1-0.1,0.1s-0.2,0.1-0.3,0.1
			c0,0,0,0.1,0.1,0.1c0.1,0.1,0.2,0.1,0.3,0c0.2-0.1,0.2-0.2,0.2-0.2s0,0,0-0.1c0,0,0,0,0.1,0h0.1c0,0,0,0,0-0.1
			c0.1-0.1,0.1-0.3-0.1-0.4c0,0,0,0,0-0.1c0,0,0-0.1,0.1-0.1c0.2,0,0.3,0,0.4,0c0,0,0.1,0,0.2,0c0,0,0-0.1,0.1-0.1
			c0.1-0.1,0.1-0.1,0.2-0.2c0.8,0.4,1,0.4,1.2,0.4c0.1,0,0.2,0,0.3,0c0.3,0,0.4-0.1,0.4-0.1h0.1c0,0,0.1,0.1,0,0.1l-0.2,0.3
			c0,0-0.1,0.1-0.1,0c-0.1,0-0.3,0-0.4,0c0,0.1,0,0.2,0,0.2s0.1,0.1,0.2,0c0.1,0,0.2,0,0.2,0v0.1h0.1c0.5-0.1,0.5-0.6,0.5-0.6
			s0,0,0-0.1c0,0,0,0,0.1,0c0,0,0.4,0.1,0.4,0.4l0,0c0,0.4,0.3,0.8,0.6,0.8h0.2l0,0c0,0-0.1,0,0-0.1s0-0.4,0-0.4s-0.1-0.1,0-0.1l0,0
			c0,0,0.4,0.1,0.4,0.4C-121.6,452.3-121.7,452.7-122,452.8z"/>
		<path id="XMLID_1521_" class="st0" d="M-127.9,461.2L-127.9,461.2l-0.1-1.3h2v-1h-2v-1h-1v1h-1v1h1v1.3h0.2
			c-0.3,0.1-0.5,0.2-0.7,0.4l3,3.3c0.4-0.4,0.5-0.9,0.5-1.5C-126,462.4-126.8,461.4-127.9,461.2z"/>
		<path id="XMLID_1522_" class="st0" d="M-130.1,451.3L-130.1,451.3c-0.1,0-0.1,0-0.2,0l0,0v0.1c0,0,0.1,0,0.2,0
			c0.1,0,0.2-0.1,0.2-0.1l0,0l0,0C-130,451.3-130.1,451.3-130.1,451.3z"/>
		<path id="XMLID_1532_" class="st0" d="M-107,436.1c0-1.8-1.5-3.2-3.2-3.2h-36.6c-1.8,0-3.2,1.5-3.2,3.2v36.5
			c0,1.8,1.5,3.2,3.2,3.2h36.5c1.8,0,3.2-1.5,3.2-3.2L-107,436.1L-107,436.1z M-121.7,442.7l0.7,0.2l-0.1,0.2l-0.7-0.2L-121.7,442.7
			z M-123.2,442.4L-123.2,442.4l0.6,0.1l-0.1,0.3l-0.6-0.1L-123.2,442.4z M-123.3,443l1.7,0.3l-0.1,0.2l-1.7-0.3L-123.3,443z
			 M-121.5,446l0.1-0.3l0.7,0.1l-0.1,0.3L-121.5,446z M-121,446.4v0.2l-0.3-0.1v-0.2L-121,446.4z M-121.4,445.4v-0.3h0.2v0.3H-121.4
			z M-121,445.5v-0.3h0.2v0.3H-121z M-121.4,444.8l0.1-0.3l0.7,0.1v0.3L-121.4,444.8z M-121,444.3l-1.2-0.2l0.1-0.3l1.1,0.2V444.3z
			 M-135.5,446.1l-0.1-0.3l0.7-0.1l0.1,0.3L-135.5,446.1z M-135,446.6l-0.3,0.1v-0.2l0.3-0.1V446.6z M-135.7,445v-0.3l0.7-0.1
			l0.1,0.3L-135.7,445z M-135,445.2v0.3h-0.2v-0.3H-135z M-135.4,445.2v0.3h-0.3v-0.3H-135.4z M-135.3,444.3l-0.1-0.3l1.2-0.2
			l0.1,0.3L-135.3,444.3z M-134.2,445.9l-0.3,0.1l-0.2-1.5l0.3-0.1L-134.2,445.9z M-133.8,446.2l0.1,0.3l-1,0.1v-0.3L-133.8,446.2z
			 M-133.2,444.2l0.1,0.3l-0.9,0.1v-0.3L-133.2,444.2z M-133.9,443.7l0.4-0.1l0.1,0.3l-0.4,0.1L-133.9,443.7z M-132.3,444.7v0.3
			l-1.4,0.2v-0.3L-132.3,444.7z M-133.8,445.2h-0.2v-0.3h0.2V445.2z M-133.9,445.8l-0.1-0.3l0.9-0.1v0.3L-133.9,445.8z
			 M-132.3,445.9l0.1,0.3l-1.2,0.2v-0.3L-132.3,445.9z M-132.6,445.6l-0.1-0.3l1.2-0.1l0.1,0.3L-132.6,445.6z M-131.9,444.7l1.2-0.1
			v0.3l-1.2,0.1V444.7z M-130.7,445.7v0.3l-1.2,0.1v-0.3L-130.7,445.7z M-131.1,445.4v-0.3l1.2-0.1v0.3L-131.1,445.4z M-129.2,443.2
			v0.3h-1v-0.3H-129.2z M-130.9,443v-0.3l0.8-0.1v0.3L-130.9,443z M-126.2,443.2v0.3h-1v-0.3H-126.2z M-126.3,442.9v-0.3l0.8,0.1
			v0.3L-126.3,442.9z M-126.8,444.1h-0.9v-0.3h0.9V444.1z M-126,444.5v0.3l-1.3-0.1v-0.3L-126,444.5z M-127.6,444.4v0.3h-0.1
			L-127.6,444.4L-127.6,444.4z M-126.7,442.9h-1.3v-0.3h1.3V442.9z M-127.5,443.1v0.3c-0.4,0-0.8,0-1.3,0v-0.3
			C-128.4,443.1-128,443.1-127.5,443.1z M-128,443.8v1.5h-0.4v-1.5H-128z M-129.7,442.9v-0.3h1.3v0.3H-129.7z M-128.7,443.8v0.3
			h-0.9v-0.3H-128.7z M-128.6,444.4v0.3h-0.1L-128.6,444.4L-128.6,444.4z M-129.1,444.4v0.3l-1.3,0.1v-0.3L-129.1,444.4z
			 M-129,445.7v0.3h-1.3v-0.3H-129z M-129.6,445.4v-0.3h0.9v0.3H-129.6z M-127.7,445.6v0.3h-1v-0.3H-127.7z M-127.7,445.3V445h0.9
			v0.3H-127.7z M-127.4,445.7l1.3,0.1v0.3l-1.3-0.1V445.7z M-126.5,445.4v-0.3l1.2,0.1v0.3L-126.5,445.4z M-125.6,444.8v-0.3
			l1.2,0.1v0.3L-125.6,444.8z M-125.7,445.7l0.7,0.1h0.4v0.3l-1.2-0.1L-125.7,445.7z M-124.9,445.5l0.1-0.3l1.2,0.1l-0.1,0.3
			L-124.9,445.5z M-122.3,444.4v0.3l-0.9-0.1l0.1-0.3L-122.3,444.4z M-122.9,443.9l0.1-0.3l0.4,0.1l-0.2,0.3L-122.9,443.9z
			 M-122.3,445v0.3h-0.2V445H-122.3z M-122.8,444.9v0.3l-1.3-0.2v-0.3L-122.8,444.9z M-124.1,445.9l1.2,0.2v0.3l-1.2-0.2V445.9z
			 M-123.4,445.7v-0.3l0.9,0.1l-0.1,0.3L-123.4,445.7z M-122.6,446.2l1,0.2v0.3l-1-0.1V446.2z M-122.2,445.9l0.2-1.5l0.3,0.1
			l-0.2,1.5L-122.2,445.9z M-124.8,444l1.1,0.1v0.3l-1.1-0.1V444z M-125.2,444.2l-1.2-0.1v-0.3l1.2,0.1V444.2z M-125.6,442.1h0.2
			v0.3h-0.2V442.1z M-127.1,441.9l1.2,0.1v0.3l-1.2-0.1V441.9z M-127.5,441.9v0.3c-0.3,0-0.5,0-0.7,0s-0.4,0-0.7,0v-0.3H-127.5z
			 M-129.2,441.9v0.3l-1.2,0.1V442L-129.2,441.9z M-130.8,442.1v0.3h-0.2v-0.3H-130.8z M-130,443.8v0.3l-1.2,0.1v-0.3L-130,443.8z
			 M-131.6,444v0.3l-1.1,0.1v-0.3L-131.6,444z M-133,443.2l-1.7,0.3l-0.1-0.2l1.7-0.3L-133,443.2z M-133.3,442.4L-133.3,442.4
			l0.1,0.3l-0.6,0.1l-0.1-0.3L-133.3,442.4z M-134.7,442.7l0.1,0.2l-0.7,0.2l-0.1-0.2L-134.7,442.7z M-137,443.3l0.7-0.2l0.1,0.3
			l-0.7,0.2L-137,443.3z M-136.8,443.8l1.7-0.4l0.1,0.2l-1.7,0.4L-136.8,443.8z M-136,444.1l0.2-0.1l0.1,0.3l-0.2,0.1L-136,444.1z
			 M-121,460.3c0,1.8-0.8,3.5-2.1,4.8c-1.3,1.3-3.2,2.1-5,2.1c-1.9,0-3.5-0.8-4.9-2.1c-1.3-1.3-2-3-2-4.8v-9.5h14V460.3z
			 M-128.3,446.9C-128.3,446.9-128.2,446.9-128.3,446.9c0.7,0,1.2,0.4,1.6,1.1c0.2,0.4,0.3,0.8,0.4,1.2c-0.1,0-0.2,0-0.3,0
			c-0.1-0.2-0.1-0.4-0.3-0.8c-0.3-0.7-0.8-1.1-1.4-1.1l0,0c-0.4,0-0.8,0.2-1.1,0.6s-0.5,1-0.6,1.3c-0.1,0-0.2,0-0.3,0
			C-130,448.4-129.5,446.9-128.3,446.9z M-129.4,446.9h0.4c-0.1,0.1-0.2,0.1-0.3,0.2L-129.4,446.9z M-127.3,446.9h0.3v0.2
			C-127.1,447.1-127.2,447-127.3,446.9z M-125.6,448.2v0.3h-0.6c0-0.1-0.1-0.2-0.1-0.3H-125.6z M-126.4,447.9
			c-0.1-0.1-0.1-0.2-0.2-0.3h0.4v0.3H-126.4z M-121.3,449.4l-0.1,0.3c-1.6-0.2-3.1-0.4-4.6-0.5c0-0.1-0.1-0.3-0.1-0.4
			C-124.5,448.9-122.9,449.1-121.3,449.4z M-125.3,448.3l1.1,0.1v0.3l-1.1-0.1V448.3z M-123.9,448.7v-0.3l1.1,0.1v0.3L-123.9,448.7z
			 M-121.7,448.7l-0.1,0.3l-0.7-0.1l0.1-0.3L-121.7,448.7z M-121.7,448.4l0.1-0.3h0.1L-121.7,448.4L-121.7,448.4z M-121.5,447.8
			l-0.7-0.1v-0.3l0.7,0.1V447.8z M-121.9,448.1v0.3l-1.1-0.2v-0.3L-121.9,448.1z M-122.5,447.6l-1.1-0.1v-0.3l1,0.1L-122.5,447.6z
			 M-123.3,447.9v0.3l-1.1-0.2v-0.3L-123.3,447.9z M-124,447.4l-1.2-0.1V447l1.2,0.1V447.4z M-124.7,447.7v0.3l-1.3-0.1v-0.3
			L-124.7,447.7z M-126.7,447.2v-0.3l1.2,0.1v0.2L-126.7,447.2L-126.7,447.2z M-128.2,448.9L-128.2,448.9L-128.2,448.9
			c-0.3,0-0.7,0.1-1,0.1c0.1-0.4,0.4-1.3,1.1-1.4c0.5-0.1,1,0.4,1.3,1.5c-0.4,0-1.2,0-1.2,0l0,0L-128.2,448.9z M-130.2,448.4
			c0,0,0,0.1-0.1,0.1h-0.5v-0.3h0.6C-130.2,448.3-130.2,448.3-130.2,448.4z M-130.1,447.9v-0.3h0.3c-0.1,0.1-0.2,0.2-0.2,0.3H-130.1
			z M-129.7,447.2l-1.2,0.1v-0.2l1.2-0.1V447.2z M-130.4,447.6v0.3l-1.2,0.1l-0.1-0.3L-130.4,447.6z M-131.1,448.3v0.3l-1.1,0.1
			v-0.3L-131.1,448.3z M-132.4,447.4v-0.2l1.2-0.1v0.3L-132.4,447.4L-132.4,447.4z M-132,447.7v0.3l-1.1,0.1v-0.3L-132,447.7z
			 M-132.5,448.7l-1.1,0.1v-0.3l1.1-0.1V448.7z M-133.9,447.6v-0.3l1-0.1v0.3L-133.9,447.6z M-133.4,447.9v0.3l-1.1,0.2v-0.3
			L-133.4,447.9z M-133.9,448.6l0.1,0.3l-0.8,0.1l-0.1-0.3L-133.9,448.6z M-134.8,448.4l-0.1-0.3h0.1V448.4L-134.8,448.4z
			 M-134.9,447.8l-0.1-0.2l0.8-0.1v0.3L-134.9,447.8L-134.9,447.8z M-130.4,448.8c0,0.1-0.1,0.2-0.1,0.4c-1.4,0.1-2.9,0.3-4.5,0.5
			l-0.1-0.3C-133.5,449.1-132,448.9-130.4,448.8z M-120.6,447.4c-2.9-0.5-5.2-0.8-7.5-0.8c-2.3,0-4.7,0.3-7.5,0.8l-0.1-0.3
			c5.3-1.1,9.9-1.1,15.2,0L-120.6,447.4z M-120.5,444.4l-0.2-0.1l0.1-0.3l0.2,0.1L-120.5,444.4z M-119.6,444l-1.7-0.4l0.1-0.2
			l1.7,0.4L-119.6,444z M-119.5,443.5l-0.7-0.2l0.1-0.3l0.7,0.2L-119.5,443.5z"/>
		<path id="XMLID_1642_" class="st0" d="M-130.4,463.4c0,1.2,1,2.3,2.3,2.3c0.3,0,0.6-0.1,0.9-0.2l-2.8-3.2
			C-130.3,462.7-130.4,463-130.4,463.4z"/>
	</g>
	<g id="XMLID_1323_">
		<path id="XMLID_1324_" class="st0" d="M-74.9,461.2L-74.9,461.2l-0.1-1.3h1v-1h-1v-1h-1v1h-1v1h1v1.3h0.1
			c-0.3,0.1-0.5,0.2-0.8,0.4l3,3.3c0.4-0.4,0.5-0.9,0.5-1.5C-73.1,462.4-73.9,461.4-74.9,461.2z"/>
		<path id="XMLID_1326_" class="st0" d="M-74.1,456.3c-0.1-0.2-0.1-0.3-0.2-0.3h-0.1c0,0,0,0.1,0,0.2s0.1,0.2,0.1,0.2s0,0,0.1,0
			c0.1,0.1,0.2,0.1,0.4,0.1c0,0-0.1-0.1-0.1-0.2C-74.1,456.4-74.1,456.3-74.1,456.3z"/>
		<path id="XMLID_1327_" class="st0" d="M-77.2,451.3L-77.2,451.3c-0.1,0-0.1,0-0.2,0l0,0v0.1c0,0,0.1,0,0.2,0s0.2-0.1,0.2-0.1l0,0
			l0,0C-77.1,451.3-77.2,451.3-77.2,451.3z"/>
		<path id="XMLID_1328_" class="st0" d="M-71.4,452.8L-71.4,452.8c-0.1,0.1-0.2,0.2-0.4,0.3c0,0-0.1,0.1-0.2,0.1l0,0
			c0,0,0.1,0.1,0.3,0C-71.4,453.1-71.4,453-71.4,452.8L-71.4,452.8z"/>
		<path id="XMLID_1331_" class="st0" d="M-68,450.9h-14v6h14V450.9z M-81.6,452.5c0.1-0.2,0.2-0.2,0.3-0.3c0.1,0,0.2,0,0.3,0.1
			c0,0,0,0,0.1,0.1c0,0.1,0.1,0.1,0.2,0.2h0.1c0,0,0,0,0-0.1s0-0.2,0.1-0.2h0.1l0,0c0-0.1,0-0.3-0.1-0.3v-0.1h0.1
			c0.3,0.1,0.3,0.4,0.3,0.5c0.1,0.1,0.1,0.1,0.2,0.2c0,0.1,0,0.2-0.1,0.3s-0.1,0.3-0.1,0.4s0.1,0.2,0.3,0.3c0.2,0.1,0.4,0.1,0.6,0.2
			c0.2,0,0.3,0,0.4,0.1v0.1c0,0.1-0.1,0.2-0.2,0.3c-0.1,0.1-0.2,0.1-0.2,0.2c-0.1,0.1-0.2,0.1-0.2,0.1s0,0-0.1,0s-0.1-0.1-0.1-0.1
			s0-0.1,0.1-0.1l0,0c0,0,0,0,0-0.1c-0.1-0.1-0.3-0.1-0.4-0.1c0,0,0,0-0.1,0c0,0.1,0,0.1,0.1,0.1l0.1,0.1c0,0,0,0.1-0.1,0.1
			c-0.1,0.1-0.2,0.1-0.3,0.1c0,0-0.1-0.1-0.1-0.2c0,0,0,0,0-0.1c0,0,0,0-0.1,0h-0.1c-0.1,0-0.2-0.1-0.2-0.1c0-0.1,0-0.1,0-0.2
			s0.1-0.1,0.1-0.2l0,0c0,0-0.1,0-0.1-0.1l0,0l0,0c-0.1,0.1-0.2,0.1-0.4,0.1l0,0c-0.1,0-0.1,0.2-0.1,0.3v0.1v-0.1
			c-0.2-0.2-0.2-0.5-0.1-0.6v-0.1c0-0.1,0.1-0.2,0.2-0.3c0-0.1,0.1-0.2,0.1-0.2s-0.1-0.1-0.2-0.1s-0.1,0-0.1,0
			c-0.1,0.1-0.2,0.1-0.3,0C-81.6,452.8-81.7,452.7-81.6,452.5z M-69.1,452.8c-0.2,0.1-0.4,0.1-0.5,0c-0.1,0-0.1-0.1-0.1-0.2
			c-0.1,0-0.2,0-0.3,0h-0.1v-0.1c0-0.1,0-0.1,0-0.1s-0.1,0-0.2,0c-0.2,0-0.3,0-0.3,0.1s0,0.2,0,0.3c0.1,0.2,0.3,0.1,0.3,0
			c0,0,0,0,0.1,0c0,0,0,0,0,0.1s0,0.3-0.2,0.4c-0.1,0-0.1,0-0.1,0.1l0,0c0,0-0.1,0.1-0.2,0.1s-0.1-0.1-0.2-0.1
			c-0.1-0.1-0.1-0.1-0.2-0.1s-0.1,0.1-0.2,0.2s-0.1,0.2-0.2,0.2s-0.3,0.1-0.7,0c-0.3-0.1-0.8,0.1-0.8,0.2c0,0,0,0,0,0.1v0.1
			c0,0,0.1,0.1,0.6,0.1s0.5,0,0.5,0s0-0.1,0.1-0.1s0.1-0.1,0.1-0.1v-0.1h0.1l0,0c0,0.1,0.1,0.4-0.1,0.5c0.1,0,0.1,0,0.2,0
			s0.4-0.3,0.5-0.4c0,0,0-0.1,0.1,0c0,0,0.1,0,0.1,0.1c0,0.2,0,0.3-0.1,0.5c0,0.1,0,0.2,0,0.2c0.1,0,0.2,0,0.3,0s0.1-0.1,0.2-0.2
			c0.1-0.2,0.2-0.4,0.2-0.4s0-0.1,0.1-0.1h0.1c0,0,0.2,0.4,0,0.6c-0.1,0.1,0,0.2,0,0.2s0.1,0,0.2,0c0.2-0.1,0.1-0.3,0.1-0.3v-0.1
			h0.1c0,0,0.2,0.2,0.2,0.5s0,0.3,0.1,0.3s0.2,0.1,0.2,0.2v0.1l0,0c0.1,0.1,0,0.2,0,0.3c0,0,0,0,0,0.1v0.1c0,0.1,0,0.1,0,0.1
			s-0.1,0-0.1-0.1s-0.1-0.1-0.1-0.2c-0.1,0-0.1-0.1-0.1-0.1v-0.1c-0.1,0-0.2,0.1-0.3,0.1c0,0-0.1,0.1,0,0.2c0,0.2-0.1,0.5-0.2,0.6
			l-0.1,0.1c-0.1,0-0.1-0.1-0.1-0.2s0-0.1-0.1-0.1c0,0-0.1,0-0.1,0.2v0.1c0,0.1-0.1,0.2-0.2,0.2s-0.1,0-0.2,0
			c-0.1,0.1-0.2,0.1-0.2,0.1H-71v-0.1c0.1-0.1,0-0.2,0-0.2c-0.1,0-0.1-0.1-0.2-0.1s-0.1-0.1-0.1-0.2s0.1-0.2,0.2-0.2
			s0.3-0.2,0.2-0.4c0-0.1-0.1-0.2-0.1-0.3h-0.1h-0.1h-0.1c-0.1,0-0.1,0.1-0.1,0v-0.1c0-0.1,0.1-0.1,0.1-0.2v-0.1
			c-0.1,0-0.1-0.1-0.1-0.1s0,0-0.1,0s-0.3,0-0.3,0s0,0.1,0,0.2c0,0.4-0.1,0.5-0.3,0.7h-0.1c0,0,0,0,0-0.1s0-0.1-0.1-0.2
			c0,0-0.1,0-0.3,0.3c-0.1,0.1-0.2,0.2-0.3,0.3H-73v-0.1c0.1-0.3,0.1-0.4,0.1-0.5l0,0c-0.1,0-0.1,0.1-0.2,0.2s-0.1,0.2-0.2,0.2
			c0,0-0.1,0-0.1,0.1c-0.1,0.1-0.1,0.1-0.2,0.1l0,0c-0.3,0.2-0.6,0.2-0.8,0.1c-0.2,0-0.3-0.1-0.4-0.4c0-0.1-0.1-0.2-0.2-0.2
			c-0.2,0-0.4,0.2-0.4,0.3s-0.1,0.1-0.1,0.2v0.1c0,0.1,0.1,0.3,0.2,0.3l0.1,0.1h-0.1c-0.3,0-0.5-0.2-0.6-0.4c-0.3,0-0.4-0.1-0.5-0.3
			c0-0.2,0-0.3,0-0.4c0.1-0.1,0.2-0.1,0.4-0.1c0.3,0,0.4,0,0.4,0c0-0.1,0-0.1,0-0.2c0.1,0,0.1,0,0.2,0s0.4,0.1,0.6,0l0,0
			c0-0.1,0-0.3-0.1-0.4l0,0c-0.1,0-0.2,0-0.2,0.1l0,0c0,0.1-0.1,0.1-0.2,0.1s-0.2,0.1-0.2,0.1l0,0l0,0c-0.1-0.1,0-0.3,0-0.3
			c0-0.1,0-0.1,0-0.2s0.1-0.1,0.2-0.2c0.1,0,0.4-0.2,0.6-0.3c0.2-0.1,0.3-0.2,0.4-0.2c0.1-0.1,0.2,0,0.3,0.1s0.2,0.1,0.3,0.1
			c0.2,0,0.4,0,0.4,0.1c0,0,0,0.1,0,0.2s-0.1,0.1-0.2,0.2s-0.2,0.2-0.2,0.3c0.1,0.2,0.3,0.6,0.5,0.6l0,0c0.2,0,0.3-0.1,0.4-0.3
			c0-0.2-0.1-1.1-0.6-1.4c-0.6-0.3-1.2,0-1.4,0.2c-0.1,0.1-0.5,0.3-0.6,0.2v-0.1l-0.1,0.1c-0.1,0.1-0.2,0.1-0.2,0.1
			c-0.1,0-0.1,0-0.2,0l0,0c0,0.1,0.1,0.2,0.1,0.3s0.1,0.1,0.1,0.2c0,0,0,0,0.1,0c0,0,0.1,0,0.1,0.1s0,0.1-0.1,0.2s-0.4,0-0.6-0.1
			c-0.1-0.1-0.3-0.2-0.4-0.1c-0.1,0-0.1,0.3,0,0.6v0.1h-0.1c-0.3-0.3-0.6-0.6-0.7-0.6s-0.1,0.4-0.1,0.8c0,0,0,0.1-0.1,0.1h-0.1
			c-0.1-0.2-0.3-0.6-0.4-0.7c-0.1,0-0.1-0.1-0.1,0l-0.1,0.1c0,0.1,0,0.2,0.1,0.3l0,0c0.1,0.1,0.1,0.2,0.1,0.2s0,0.1-0.1,0.1
			s-0.2,0-0.3-0.1c-0.1-0.1-0.2-0.2-0.3-0.2l0,0v0.1c0,0.1,0,0.1,0,0.2c0,0.2-0.1,0.3-0.2,0.3c0,0.1-0.1,0.3-0.3,0.4h-0.1v-0.1
			c0,0,0.1-0.1,0.1-0.3h-0.1c-0.1-0.1-0.1-0.2-0.1-0.2l0,0c0,0,0,0-0.2,0h-0.1c-0.2,0-0.3,0-0.4,0.1s-0.2,0.3-0.3,0.2l-0.1,0.1l0,0
			c-0.1,0-0.2,0-0.3,0.1H-81v-0.1c0-0.2,0.1-0.4,0.2-0.4c0-0.1,0-0.2,0-0.3c0-0.1,0.1-0.1,0.1-0.1h0.1h0.1l0,0l0,0
			c0,0-0.2-0.1-0.4-0.1c-0.1,0-0.2,0-0.3-0.1c0,0-0.1-0.1-0.1-0.2v-0.1c-0.1,0-0.2,0.1-0.2,0.1h-0.1v-0.1c0.1-0.3,0.4-0.4,0.6-0.3
			c0.1,0,0.1,0.1,0.1,0.1c0.1,0,0.2,0,0.3,0.1c0,0.1,0.1,0,0.1,0l0.1-0.1c-0.1-0.2-0.1-0.3-0.1-0.4s0.1-0.1,0.1-0.1v-0.1
			c0-0.1-0.1-0.2-0.2-0.3l-0.1-0.1h0.1c0.2,0,0.3,0.1,0.4,0.2s0.1,0.1,0.1,0.2c0.1,0,0.1,0.1,0.2,0.2c0.2,0.4,0.4,0.3,0.5,0.2
			c0,0,0.1-0.1,0.1-0.3c0-0.1,0-0.1,0-0.2s0.1-0.1,0.3-0.1c0.1,0,0.3,0,0.4,0s0.1-0.1,0.1-0.4l0,0v-0.1c0,0,0,0,0.1,0
			c0,0,0.1,0,0.2-0.1l0.1-0.1c0-0.1-0.1-0.2-0.2-0.2c-0.1-0.2-0.2-0.2-0.2-0.3c0,0,0-0.1,0.1-0.1s0.2,0,0.4,0.2
			c0.1,0.1,0.2,0.2,0.3,0.2c0.1,0,0.1,0,0.1,0s0-0.1-0.1-0.1c-0.3-0.1-0.5-0.2-0.5-0.4v-0.1c0.1,0,0.1,0,0.2,0s0.2,0.1,0.4,0.1
			c0.1,0,0.1,0,0.1-0.1s0-0.3-0.1-0.4s-0.3-0.1-0.5-0.1c-0.3,0-0.7-0.1-1.1-0.3c-0.5-0.4-0.8-1-0.9-1.3c0-0.1,0.1-0.3,0.2-0.3
			c0.2,0,0.5,0.1,0.6,0.5c0.1,0.5,0.6,0.9,1,0.9c0.1,0,0.3,0,0.3-0.1c0.1,0,0.1-0.1,0.1-0.1c0-0.1,0-0.1-0.1-0.2c0,0-0.1,0-0.2,0
			c-0.2,0-0.5,0-0.5-0.4c0-0.2,0.2-0.2,0.4-0.2c0.1,0,0.1,0,0.2,0c0,0,0,0,0-0.1s0-0.1,0.1-0.2s0.4-0.1,0.5-0.1h0.1h0.1
			c0,0,0.1-0.1,0.2-0.1c0.3,0,0.3,0.4,0.3,0.6v0.1l0,0h0.1c0,0,0.2,0.1,0.1,0.3c0,0.1,0,0.1,0.1,0.1s0.1,0.1,0.1,0.2
			s-0.1,0.2-0.3,0.1c-0.1,0-0.2,0-0.2,0s0,0.1,0,0.2l0,0c0,0.1,0.1,0.2,0.6,0.3c0.1,0,0.2,0.1,0.2,0.2s-0.1,0.3-0.3,0.4
			c-0.1,0.1-0.1,0.1-0.1,0.1c0,0.1-0.1,0.1-0.2,0.1s-0.1,0-0.1,0s0,0,0,0.1c0.1,0.1,0.1,0.2,0.2,0.4c0,0.1,0.1,0.2,0.1,0.3
			s0.2,0,0.3,0l0,0h0.1l0.1-0.1c0.4-0.5,1.2-0.9,1.4-0.9s0.3,0,0.4,0.1c0.1,0,0.2,0.1,0.3,0.1c0.2,0,0.6-0.2,0.9-0.3l0.1-0.1
			c0.2-0.1,0.5-0.3,0.5-0.3l0,0c0,0-0.2,0-0.3,0s-0.1-0.2-0.2-0.2v-0.1c0,0,0,0,0,0.1s0,0.1-0.1,0.1c0,0,0-0.1-0.1,0
			c-0.4,0.3-0.6,0.3-0.7,0.3l0,0c-0.1,0-0.2,0-0.2-0.1s-0.1-0.1-0.1-0.1c-0.1,0-0.4,0.1-0.5,0.1h-0.1v-0.1c0-0.1,0.1-0.2,0.1-0.3
			l0,0c-0.1,0-0.3,0-0.4,0.1c-0.1,0-0.1,0.1-0.1,0.1c0,0.1,0,0.1,0,0.1v0.1h-0.1c0,0-0.2-0.1-0.3-0.3c0-0.1,0-0.4,0.1-0.5
			c0.1-0.2,0.2-0.3,0.3-0.3l0,0c0,0,0,0.2,0,0.1s0-0.1-0.1-0.1c-0.1-0.1-0.3,0-0.4,0h-0.1v-0.1c0.2-0.3,0.4-0.5,0.6-0.4
			c0.1,0,0.1,0.1,0.2,0.2s0.2,0.3,0.3,0.3s0.2-0.1,0.2-0.2s0-0.2-0.1-0.3c0,0,0,0,0-0.1l0,0c0.2-0.1,0.3-0.1,0.4,0
			c0.1,0,0.1,0.1,0.1,0.3c0,0.1,0,0.1-0.1,0.2v0.1l0,0c0.2,0,0.2,0,0.2,0l0.1,0.1c0,0,0,0.1-0.1,0.1s-0.2,0.1-0.3,0.1
			c0,0,0,0.1,0.1,0.1c0.1,0.1,0.2,0.1,0.3,0c0.2-0.1,0.2-0.2,0.2-0.2s0,0,0-0.1c0,0,0,0,0.1,0h0.1c0,0,0,0,0-0.1
			c0.1-0.1,0.1-0.3-0.1-0.4c0,0,0,0,0-0.1c0,0,0-0.1,0.1-0.1c0.2,0,0.3,0,0.4,0c0,0,0.1,0,0.2,0c0,0,0-0.1,0.1-0.1
			c0.1-0.1,0.1-0.1,0.2-0.2c0.1-0.2,0.2-0.2,0.4-0.2c0.1,0,0.2,0,0.3,0c0.3,0,0.4-0.1,0.4-0.1h0.1c0,0,0.1,0.1,0,0.1l-0.2,0.4
			c0,0-0.1,0.1-0.1,0c-0.1,0-0.3,0-0.4,0c0,0.1,0,0.2,0,0.2s0.1,0.1,0.2,0c0.1,0,0.2,0,0.2,0v0.1h0.1c0.5-0.1,0.5-0.6,0.5-0.6
			s0,0,0-0.1c0,0,0,0,0.1,0c0,0,0.4,0.1,0.4,0.4l0,0c0,0.4-0.1,0.8,0.2,0.8h-0.2l0,0c1,0,0.4,0,0.5-0.1s0.2-0.4,0.2-0.4l0.1-0.1h0.1
			c0,0,0.4,0.1,0.4,0.4C-68.7,452.3-68.8,452.7-69.1,452.8z"/>
		<path id="XMLID_1333_" class="st0" d="M-77.5,463.4c0,1.2,1,2.3,2.3,2.3c0.3,0,0.6-0.1,0.9-0.2l-2.8-3.2
			C-77.4,462.7-77.5,463-77.5,463.4z"/>
		<path id="XMLID_1336_" class="st0" d="M-54,436.1c0-1.8-1.5-3.2-3.2-3.2h-36.5c-1.8,0-3.2,1.5-3.2,3.2v36.5c0,1.8,1.5,3.2,3.2,3.2
			h36.5c1.8,0,3.2-1.5,3.2-3.2C-54,472.6-54,436.1-54,436.1z M-68.8,442.7l0.7,0.2l-0.1,0.2l-0.7-0.2L-68.8,442.7z M-70.3,442.4
			L-70.3,442.4l0.6,0.1l-0.1,0.3l-0.6-0.1L-70.3,442.4z M-70.4,443l1.7,0.3l-0.1,0.2l-1.7-0.3L-70.4,443z M-68.6,446l0.1-0.3
			l0.7,0.1l-0.1,0.3L-68.6,446z M-68.1,446.4v0.2l-0.3-0.1v-0.2L-68.1,446.4z M-68.5,445.4v-0.3h0.2v0.3H-68.5z M-68.1,445.5v-0.3
			h0.2v0.3H-68.1z M-68.4,444.8l0.1-0.3l0.7,0.1v0.3L-68.4,444.8z M-68.1,444.3l-1.2-0.2l0.1-0.3l1.2,0.2L-68.1,444.3z M-82.6,446.1
			l-0.1-0.3l0.7-0.1l0.1,0.3L-82.6,446.1z M-82.1,446.6l-0.3,0.1v-0.2l0.3-0.1V446.6z M-82.8,445v-0.3l0.7-0.1l0.1,0.3L-82.8,445z
			 M-82.1,445.2v0.3h-0.2v-0.3H-82.1z M-82.5,445.2v0.3h-0.3v-0.3H-82.5z M-82.4,444.3l-0.1-0.3l1.2-0.2l0.1,0.3L-82.4,444.3z
			 M-81.3,445.9l-0.3,0.1l-0.2-1.5l0.3-0.1L-81.3,445.9z M-80.9,446.2l0.1,0.3l-1,0.1v-0.3L-80.9,446.2z M-80.3,444.2l0.1,0.3
			l-0.9,0.1v-0.3L-80.3,444.2z M-80.9,443.7l0.4-0.1l0.1,0.3l-0.4,0.1L-80.9,443.7z M-79.4,444.7v0.3l-1.4,0.2v-0.3L-79.4,444.7z
			 M-80.9,445.2h-0.2v-0.3h0.2V445.2z M-81,445.8l-0.1-0.3l0.9-0.1v0.3L-81,445.8z M-79.3,445.9l0.1,0.3l-1.2,0.2v-0.3L-79.3,445.9z
			 M-79.7,445.6l-0.1-0.3l1.2-0.1l0.1,0.3L-79.7,445.6z M-79,444.7l1.2-0.1v0.3L-79,445V444.7z M-77.8,445.7v0.3l-1.2,0.1v-0.3
			L-77.8,445.7z M-78.2,445.4v-0.3l1.2-0.1v0.3L-78.2,445.4z M-76.3,443.2v0.3h-1v-0.3H-76.3z M-78,443v-0.3l0.8-0.1v0.3L-78,443z
			 M-73.3,443.2v0.3h-1v-0.3H-73.3z M-73.4,442.9v-0.3l0.8,0.1v0.3L-73.4,442.9z M-73.9,444.1h-0.9v-0.3h0.9V444.1z M-73.1,444.5
			v0.3l-1.3-0.1v-0.3L-73.1,444.5z M-74.7,444.4v0.3h-0.1L-74.7,444.4L-74.7,444.4z M-73.8,442.9h-1.3v-0.3h1.3V442.9z M-74.6,443.1
			v0.3c-0.4,0-0.8,0-1.3,0v-0.3C-75.5,443.1-75.1,443.1-74.6,443.1z M-75.1,443.8v1.5h-0.4v-1.5H-75.1z M-76.7,442.9v-0.3h1.3v0.3
			H-76.7z M-75.8,443.8v0.3h-0.9v-0.3H-75.8z M-75.7,444.4v0.3h-0.1L-75.7,444.4L-75.7,444.4z M-76.2,444.4v0.3l-1.3,0.1v-0.3
			L-76.2,444.4z M-76.1,445.7v0.3l-1.3,0.1v-0.3L-76.1,445.7z M-76.6,445.4v-0.3h0.9v0.3H-76.6z M-74.8,445.6v0.3h-1v-0.3H-74.8z
			 M-74.8,445.3V445h0.9v0.3H-74.8z M-74.5,445.7l1.3,0.1v0.3l-1.3-0.1V445.7z M-73.6,445.4v-0.3l1.2,0.1v0.3L-73.6,445.4z
			 M-72.7,444.8v-0.3l1.2,0.1v0.3L-72.7,444.8z M-72.8,445.7l0.7,0.1h0.4v0.3l-1.2-0.1L-72.8,445.7z M-72,445.5l0.1-0.3l1.2,0.1
			l-0.1,0.3L-72,445.5z M-69.3,444.4v0.3l-0.9-0.1l0.1-0.3L-69.3,444.4z M-70,443.9l0.1-0.3l0.4,0.1l-0.1,0.3L-70,443.9z M-69.4,445
			v0.3h-0.2V445H-69.4z M-69.8,444.9v0.3l-1.4-0.2v-0.3L-69.8,444.9z M-71.2,445.9l1.2,0.2v0.3l-1.2-0.2V445.9z M-70.5,445.7v-0.3
			l0.9,0.1l-0.1,0.3L-70.5,445.7z M-69.7,446.2l1,0.2v0.3l-1-0.1V446.2z M-69.3,445.9l0.2-1.5l0.3,0.1L-69,446L-69.3,445.9z
			 M-71.9,444l1.1,0.1v0.3l-1.1-0.1V444z M-72.3,444.2l-1.2-0.1v-0.3l1.2,0.1V444.2z M-72.7,442.1h0.2v0.3h-0.2V442.1z M-74.2,441.9
			l1.2,0.1v0.3l-1.2-0.1V441.9z M-74.6,441.9v0.3c-0.3,0-0.5,0-0.7,0s-0.4,0-0.7,0v-0.3H-74.6z M-76.3,441.9v0.3l-1.2,0.1V442
			L-76.3,441.9z M-77.9,442.1v0.3h-0.2v-0.3H-77.9z M-77.1,443.8v0.3l-1.2,0.1v-0.3L-77.1,443.8z M-78.7,444v0.3l-1.1,0.1v-0.3
			L-78.7,444z M-80.1,443.2l-1.7,0.3l-0.1-0.2l1.7-0.3L-80.1,443.2z M-80.4,442.4L-80.4,442.4l0.1,0.3l-0.6,0.1l-0.1-0.3
			L-80.4,442.4z M-81.7,442.7l0.1,0.2l-0.7,0.2l-0.1-0.2L-81.7,442.7z M-84.1,443.3l0.7-0.2l0.1,0.3l-0.7,0.2L-84.1,443.3z
			 M-83.9,443.8l1.7-0.4l0.1,0.2l-1.7,0.4L-83.9,443.8z M-83.1,444.1l0.2-0.1l0.1,0.3l-0.2,0.1L-83.1,444.1z M-68,460.3
			c0,1.8-0.8,3.5-2.2,4.8c-1.3,1.3-3.2,2.1-5.1,2.1s-3.5-0.8-4.8-2.1c-1.3-1.3-1.9-3-1.9-4.8v-9.5h14V460.3z M-75.3,446.9
			L-75.3,446.9c0.7,0,1.2,0.4,1.6,1.1c0.2,0.4,0.3,0.8,0.4,1.2c-0.1,0-0.2,0-0.3,0c-0.1-0.2-0.1-0.4-0.3-0.8
			c-0.3-0.7-0.8-1.1-1.4-1.1l0,0c-0.4,0-0.8,0.2-1.1,0.6c-0.3,0.4-0.5,1-0.6,1.3c-0.1,0-0.2,0-0.3,0
			C-77.1,448.4-76.6,446.9-75.3,446.9z M-76.5,446.9h0.3c-0.1,0.1-0.2,0.1-0.3,0.2V446.9z M-74.4,446.9h0.3v0.2
			C-74.2,447.1-74.3,447-74.4,446.9z M-72.7,448.2v0.3h-0.6c0-0.1-0.1-0.2-0.1-0.3H-72.7z M-73.5,447.9c-0.1-0.1-0.1-0.2-0.2-0.3
			h0.4v0.3H-73.5z M-68.4,449.4l-0.1,0.3c-1.6-0.2-3.1-0.4-4.6-0.5c0-0.1-0.1-0.3-0.1-0.4C-71.6,448.9-69.9,449.1-68.4,449.4z
			 M-72.4,448.3l1.1,0.1v0.3l-1.1-0.1V448.3z M-71,448.7v-0.3l1.1,0.1v0.3L-71,448.7z M-68.8,448.7l-0.1,0.3l-0.7-0.1l0.1-0.3
			L-68.8,448.7z M-68.8,448.4l0.1-0.3h0.1L-68.8,448.4L-68.8,448.4z M-68.6,447.8l-0.7-0.1v-0.3l0.7,0.1V447.8z M-69,448.1v0.3
			l-1.1-0.2v-0.3L-69,448.1z M-69.6,447.6l-1.1-0.1v-0.3l1,0.1L-69.6,447.6z M-70.4,447.9v0.3l-1.1-0.1v-0.3L-70.4,447.9z
			 M-71.1,447.4l-1.2-0.1V447l1.2,0.1V447.4z M-71.8,447.7l-0.1,0.3l-1.2-0.1v-0.3L-71.8,447.7z M-73.8,447.2v-0.3l1.2,0.1v0.2
			L-73.8,447.2L-73.8,447.2z M-75.3,448.9L-75.3,448.9L-75.3,448.9c-0.3,0-0.7,0.1-1,0.1c0.1-0.4,0.4-1.3,1.1-1.4
			c0.5-0.1,1,0.4,1.4,1.5c-0.4,0-1.2,0-1.2,0l0,0L-75.3,448.9z M-77.3,448.4c0,0,0,0.1-0.1,0.1h-0.5v-0.3h0.6
			C-77.3,448.3-77.3,448.3-77.3,448.4z M-77.2,447.9v-0.3h0.3c-0.1,0.1-0.2,0.2-0.2,0.3H-77.2z M-76.8,447.2l-1.2,0.1v-0.2l1.2-0.1
			V447.2z M-77.5,447.6v0.3l-1.2,0.1l-0.1-0.3L-77.5,447.6z M-78.2,448.3v0.3l-1.1,0.1v-0.3L-78.2,448.3z M-79.5,447.4v-0.2l1.2-0.1
			v0.3L-79.5,447.4L-79.5,447.4z M-79.1,447.7v0.3l-1.1,0.1v-0.3L-79.1,447.7z M-79.6,448.7l-1.1,0.1v-0.3l1.1-0.1V448.7z
			 M-80.9,447.6v-0.3l1-0.1v0.3L-80.9,447.6z M-80.4,447.9v0.3l-1.1,0.2v-0.3L-80.4,447.9z M-81,448.6l0.1,0.3l-0.7,0.1l-0.1-0.3
			L-81,448.6z M-81.9,448.4l-0.1-0.3h0.1V448.4L-81.9,448.4z M-82,447.8l-0.1-0.3l0.8-0.1v0.3L-82,447.8z M-77.5,448.8
			c0,0.1-0.1,0.2-0.1,0.4c-1.4,0.1-2.9,0.3-4.5,0.5l-0.1-0.3C-80.6,449.1-79,448.9-77.5,448.8z M-67.7,447.4
			c-2.9-0.5-5.2-0.8-7.5-0.8s-4.7,0.3-7.5,0.8l-0.1-0.3c5.3-1.1,9.9-1.1,15.2,0L-67.7,447.4z M-67.6,444.4l-0.2-0.1l0.1-0.3l0.2,0.1
			L-67.6,444.4z M-66.7,444l-1.7-0.4l0.1-0.2l1.7,0.4L-66.7,444z M-66.6,443.5l-0.7-0.2l0.1-0.3l0.7,0.2L-66.6,443.5z"/>
		<path id="XMLID_1446_" class="st0" d="M-71.6,452.2v-0.1c0,0-0.3-0.1-0.6-0.1l0,0l0,0l0,0c-0.1,0-0.1,0-0.1,0s0,0.1,0,0.2
			s0.3,0.2,0.5,0.1C-71.6,452.3-71.6,452.3-71.6,452.2z"/>
	</g>
	<g id="XMLID_921_">
		<path id="XMLID_922_" class="st0" d="M-178.2,505.6L-178.2,505.6c-0.1,0.1-0.2,0.2-0.4,0.3c0,0-0.1,0.1-0.2,0.1l0,0
			c0,0,0.1,0.1,0.3,0C-178.1,505.9-178.2,505.8-178.2,505.6L-178.2,505.6z"/>
		<path id="XMLID_1061_" class="st0" d="M-180.9,509c-0.1-0.2-0.1-0.3-0.2-0.3h-0.1c0,0,0,0.1,0,0.2s0.1,0.2,0.1,0.2s0,0,0.1,0
			c0.1,0.1,0.2,0.1,0.4,0.1c0,0-0.1-0.1-0.1-0.2C-180.8,509.1-180.9,509.1-180.9,509z"/>
		<path id="XMLID_1062_" class="st0" d="M-178.3,505v-0.1c0,0-0.3-0.1-0.6-0.1l0,0l0,0l0,0c-0.1,0-0.1,0-0.1,0s0,0.1,0,0.2
			s0.3,0.2,0.5,0.1C-178.4,505.1-178.4,505-178.3,505z"/>
		<path id="XMLID_1072_" class="st0" d="M-175,502.9h-14v7h14V502.9z M-188.3,505.2c0.1-0.2,0.2-0.2,0.3-0.3c0.1,0,0.2,0,0.3,0.1
			c0,0,0,0,0.1,0.1c0,0.1,0.1,0.1,0.2,0.2h0.1c0,0,0,0,0-0.1s0-0.2,0.1-0.2h0.1l0,0c0-0.1,0-0.3-0.1-0.3v-0.1h0.1
			c0.3,0.1,0.3,0.4,0.3,0.5c0.1,0.1,0.1,0.1,0.2,0.2c0,0.1,0,0.2-0.1,0.3c-0.1,0.1-0.1,0.3-0.1,0.4s0.1,0.2,0.3,0.3s0.4,0.1,0.6,0.2
			c0.2,0,0.3,0,0.4,0.1v0.1c0,0.1-0.1,0.2-0.2,0.3c-0.1,0.1-0.2,0.1-0.2,0.2c-0.1,0.1-0.2,0.1-0.2,0.1s0,0-0.1,0s-0.1-0.1-0.1-0.1
			s0-0.1,0.1-0.1l0,0c0,0,0,0,0-0.1c-0.1-0.1-0.3-0.1-0.4-0.1c0,0,0,0-0.1,0c0,0.1,0,0.1,0.1,0.1l0.1,0.1c0,0,0,0.1-0.1,0.1
			c-0.1,0.1-0.2,0.1-0.3,0.1c0,0-0.1-0.1-0.1-0.2c0,0,0,0,0-0.1c0,0,0,0-0.1,0h-0.1c-0.1,0-0.2-0.1-0.2-0.1c0-0.1,0-0.1,0-0.2
			s0.1-0.1,0.1-0.2l0,0c0,0-0.1,0-0.1-0.1l0,0l0,0c-0.1,0.1-0.2,0.1-0.4,0.1l0,0c-0.1,0-0.1,0.2-0.1,0.3v0.1v-0.1
			c-0.2-0.2-0.2-0.5-0.1-0.6v-0.1c0-0.1,0.1-0.2,0.2-0.3c0-0.1,0.1-0.2,0.1-0.2s-0.1-0.1-0.2-0.1c-0.1,0-0.1,0-0.1,0
			c-0.1,0.1-0.2,0.1-0.3,0C-188.4,505.6-188.4,505.4-188.3,505.2z M-175.9,505.6c-0.2,0.1-0.4,0.1-0.5,0c-0.1,0-0.1-0.1-0.1-0.2
			c-0.1,0-0.2,0-0.3,0h-0.1v-0.1c0-0.1,0-0.1,0-0.1s-0.1,0-0.2,0c-0.2,0-0.3,0-0.3,0.1s0,0.2,0,0.3c0.1,0.2,0.3,0.1,0.3,0
			c0,0,0,0,0.1,0c0,0,0,0,0,0.1s0,0.3-0.2,0.4c-0.1,0-0.1,0-0.1,0.1l0,0c0,0-0.1,0.1-0.2,0.1s-0.1-0.1-0.2-0.1
			c-0.1-0.1-0.1-0.1-0.2-0.1c-0.1,0-0.1,0.1-0.2,0.2c-0.1,0.1-0.1,0.2-0.2,0.2c-0.1,0-0.3,0.1-0.7,0c-0.3-0.1-0.8,0.1-0.8,0.2
			c0,0,0,0,0,0.1v0.1c0,0,0.1,0.1,0.6,0.1s0.5,0,0.5,0s0-0.1,0.1-0.1s0.1-0.1,0.1-0.1v-0.1h0.1l0,0c0,0.1,0.1,0.4-0.1,0.5
			c0.1,0,0.1,0,0.2,0s0.4-0.3,0.5-0.4c0,0,0-0.1,0.1,0c0,0,0.1,0,0.1,0.1c0,0.2,0,0.3-0.1,0.5c0,0.1,0,0.2,0,0.2c0.1,0,0.2,0,0.3,0
			s0.1-0.1,0.2-0.2c0.1-0.2,0.2-0.4,0.2-0.4s0-0.1,0.1-0.1h0.1c0,0,0.2,0.4,0,0.6c-0.1,0.1,0,0.2,0,0.2s0.1,0,0.2,0
			c0.2-0.1,0.1-0.3,0.1-0.3v-0.1h0.1c0,0,0.2,0.2,0.2,0.5s0,0.3,0.1,0.3s0.2,0.1,0.2,0.2v0.1l0,0c0.1,0.1,0,0.2,0,0.3c0,0,0,0,0,0.1
			v0.1c0,0.1,0,0.1,0,0.1s-0.1,0-0.1-0.1s-0.1-0.1-0.1-0.2c-0.1,0-0.1-0.1-0.1-0.1v-0.1c-0.1,0-0.2,0.1-0.3,0.1c0,0-0.1,0.1,0,0.2
			c0,0.2-0.1,0.5-0.2,0.6l-0.1,0.1c-0.1,0-0.1-0.1-0.1-0.2s0-0.1-0.1-0.1c0,0-0.1,0-0.1,0.2v0.1c0,0.1-0.1,0.2-0.2,0.2
			c-0.1,0-0.1,0-0.2,0c-0.1,0.1-0.2,0.1-0.2,0.1h-0.1v-0.1c0.1-0.1,0-0.2,0-0.2c-0.1,0-0.1-0.1-0.2-0.1c-0.1,0-0.1-0.1-0.1-0.2
			s0.1-0.2,0.2-0.2c0.1,0,0.3-0.2,0.2-0.4c0-0.1-0.1-0.2-0.1-0.3h-0.1h-0.1h-0.1c-0.1,0-0.1,0.1-0.1,0v-0.1c0-0.1,0.1-0.1,0.1-0.2
			v-0.1c-0.1,0-0.1-0.1-0.1-0.1s0,0-0.1,0s-0.3,0-0.3,0s0,0.1,0,0.2c0,0.4-0.1,0.5-0.3,0.7h-0.1c0,0,0,0,0-0.1s0-0.1-0.1-0.2
			c0,0-0.1,0-0.3,0.3c-0.1,0.1-0.2,0.2-0.3,0.3h-0.1v-0.1c0.1-0.3,0.1-0.4,0.1-0.5l0,0c-0.1,0-0.1,0.1-0.2,0.2
			c-0.1,0.1-0.1,0.2-0.2,0.2c0,0-0.1,0-0.1,0.1c-0.1,0.1-0.1,0.1-0.2,0.1l0,0c-0.3,0.2-0.6,0.2-0.8,0.1c-0.2,0-0.3-0.1-0.4-0.4
			c0-0.1-0.1-0.2-0.2-0.2c-0.2,0-0.4,0.2-0.4,0.3s-0.1,0.1-0.1,0.2v0.1c0,0.1,0.1,0.3,0.2,0.3l0.1,0.1h-0.1c-0.3,0-0.5-0.2-0.6-0.4
			c-0.3,0-0.4-0.1-0.5-0.3c0-0.2,0-0.3,0-0.4c0.1-0.1,0.2-0.1,0.4-0.1c0.3,0,0.4,0,0.4,0c0-0.1,0-0.1,0-0.2c0.1,0,0.1,0,0.2,0
			c0.1,0,0.4,0.1,0.6,0l0,0c0-0.1,0-0.3-0.1-0.4l0,0c-0.1,0-0.2,0-0.2,0.1l0,0c0,0.1-0.1,0.1-0.2,0.1s-0.2,0.1-0.2,0.1l0,0l0,0
			c-0.1-0.1,0-0.3,0-0.3c0-0.1,0-0.1,0-0.2s0.1-0.1,0.2-0.2c0.1,0,0.4-0.2,0.6-0.3c0.2-0.1,0.3-0.2,0.4-0.2c0.1-0.1,0.2,0,0.3,0.1
			s0.2,0.1,0.3,0.1c0.2,0,0.4,0,0.4,0.1c0,0,0,0.1,0,0.2s-0.1,0.1-0.2,0.2c-0.1,0.1-0.2,0.3-0.2,0.4c0.1,0.2,0.3,0.7,0.5,0.7l0,0
			c0.2,0,0.3-0.2,0.4-0.4c0-0.2-0.1-1.1-0.6-1.5c-0.6-0.3-1.2,0-1.4,0.2c-0.1,0.1-0.5,0.3-0.6,0.2V507c0,0-0.1,0-0.1,0.1
			c-0.1,0.1-0.2,0.1-0.2,0.1c-0.1,0-0.1,0-0.2,0l0,0c0,0.1,0.1,0.2,0.1,0.3s0.1,0.1,0.1,0.2c0,0,0,0,0.1,0c0,0,0.1,0,0.1,0.1
			s0,0.1-0.1,0.2s-0.4,0-0.6-0.1c-0.1-0.1-0.3-0.2-0.4-0.1c-0.1,0-0.1,0.3,0,0.6v0.1h-0.1c-0.3-0.3-0.6-0.6-0.7-0.6
			s-0.1,0.4-0.1,0.8c0,0,0,0.1-0.1,0.1h-0.1c-0.1-0.2-0.3-0.6-0.4-0.7c-0.1,0-0.1-0.1-0.1,0l-0.1,0.1c0,0.1,0,0.2,0.1,0.3l0,0
			c0.1,0.1,0.1,0.2,0.1,0.2s0,0.1-0.1,0.1s-0.2,0-0.3-0.1s-0.2-0.2-0.3-0.2l0,0v0.1c0,0.1,0,0.1,0,0.2c0,0.2-0.1,0.3-0.2,0.3
			c0,0.1-0.1,0.3-0.3,0.4h-0.1v-0.1c0,0,0.1-0.1,0.1-0.3h-0.1c-0.1-0.1-0.1-0.2-0.1-0.2l0,0c0,0,0,0-0.2,0h-0.1
			c-0.2,0-0.3,0-0.4,0.1c-0.1,0.1-0.2,0.4-0.3,0.4l-0.1,0.2l0,0c-0.1,0-0.2-0.1-0.3,0l-0.1-0.1v-0.1c0-0.2,0.1-0.4,0.2-0.4
			c0-0.1,0-0.2,0-0.3c0-0.1,0.1-0.1,0.1-0.1h0.1h0.1l0,0l0,0c0,0-0.2-0.1-0.4-0.1c-0.1,0-0.2,0-0.3-0.1c0,0-0.1-0.1-0.1-0.2v-0.1
			c-0.1,0-0.2,0.1-0.2,0.1h-0.1v-0.1c0.1-0.3,0.4-0.4,0.6-0.3c0.1,0,0.1,0.1,0.1,0.1c0.1,0,0.2,0,0.3,0.1c0,0.1,0.1,0,0.1,0l0.1-0.1
			c-0.1-0.2-0.1-0.3-0.1-0.4s0.1-0.1,0.1-0.1v-0.1c0-0.1-0.1-0.2-0.2-0.3l-0.1-0.1h0.1c0.2,0,0.3,0.1,0.4,0.2
			c0.1,0.1,0.1,0.1,0.1,0.2c0.1,0,0.1,0.1,0.2,0.2c0.2,0.4,0.4,0.3,0.5,0.2c0,0,0.1-0.1,0.1-0.3c0-0.1,0-0.1,0-0.2s0.1-0.1,0.3-0.1
			c0.1,0,0.3,0,0.4,0c0.1,0,0.1-0.1,0.1-0.4l0,0v-0.1c0,0,0,0,0.1,0c0,0,0.1,0,0.2-0.1l0.1-0.1c0-0.1-0.1-0.2-0.2-0.2
			c-0.1-0.2-0.2-0.2-0.2-0.3c0,0,0-0.1,0.1-0.1s0.2,0,0.4,0.2c0.1,0.1,0.2,0.2,0.3,0.2s0.1,0,0.1,0s0-0.1-0.1-0.1
			c-0.3-0.1-0.5-0.2-0.5-0.4v-0.1c0.1,0,0.1,0,0.2,0c0.1,0,0.2,0.1,0.4,0.1c0.1,0,0.1,0,0.1-0.1s0-0.3-0.1-0.4s-0.3-0.1-0.5-0.1
			c-0.3,0-0.7-0.1-1.1-0.3c-0.5-0.4-0.8-1-0.9-1.3c0-0.1,0.1-0.3,0.2-0.3c0.2,0,0.5,0.1,0.6,0.5c0.1,0.5,0.6,0.9,1,0.9
			c0.1,0,0.3,0,0.3-0.1c0.1,0,0.1-0.1,0.1-0.1c0-0.1,0-0.1-0.1-0.2c0,0-0.1,0-0.2,0c-0.2,0-0.5,0-0.5-0.4c0-0.2,0.2-0.2,0.4-0.2
			c0.1,0,0.1,0,0.2,0c0,0,0,0,0-0.1s0-0.1,0.1-0.2s0.4-0.1,0.5-0.1h0.1h0.1c0,0,0.1-0.1,0.2-0.1c0.3,0,0.3,0.4,0.3,0.6v0.1l0,0h0.1
			c0,0,0.2,0.1,0.1,0.3c0,0.1,0,0.1,0.1,0.1s0.1,0.1,0.1,0.2s-0.1,0.2-0.3,0.1c-0.1,0-0.2,0-0.2,0s0,0.1,0,0.2l0,0
			c0,0.1,0.1,0.2,0.6,0.3c0.1,0,0.2,0.1,0.2,0.2s-0.1,0.3-0.3,0.4c-0.1,0.1-0.1,0.1-0.1,0.1c0,0.1-0.1,0.1-0.2,0.1
			c-0.1,0-0.1,0-0.1,0s0,0,0,0.1c0.1,0.1,0.1,0.2,0.2,0.4c0,0.1,0.1,0.2,0.1,0.3c0,0.1,0.2,0,0.3,0l0,0h0.1l0.1-0.1
			c0.4-0.5,1.2-0.9,1.4-0.9s0.3,0,0.4,0.1c0.1,0,0.2,0.1,0.3,0.1c0.2,0,0.6-0.2,0.9-0.3v-0.1c0.2-0.1,0.3-0.3,0.3-0.3l0,0
			c0,0-0.1,0-0.2,0s-0.1-0.2-0.1-0.2v-0.1c0,0,0,0,0,0.1s0,0.1-0.1,0.1c0,0,0,0-0.1,0.1c-0.4,0.3-0.6,0.4-0.7,0.4l0,0
			c-0.1,0-0.2-0.1-0.2-0.2s-0.1-0.1-0.1-0.1c-0.1,0-0.4,0.1-0.5,0.1h-0.1v-0.1c0-0.1,0.1-0.2,0.1-0.3l0,0c-0.1,0-0.3,0-0.4,0.1
			c-0.1,0-0.1,0.1-0.1,0.1c0,0.1,0,0.1,0,0.1v0.1h-0.1c0,0-0.2-0.1-0.3-0.3c0-0.1,0-0.3,0.1-0.4c0.1-0.2,0.2-0.2,0.3-0.2l0,0
			c0,0,0,0.1,0,0s0-0.1-0.1-0.2s-0.3-0.1-0.4,0h-0.1v-0.1c0.2-0.3,0.4-0.5,0.6-0.4c0.1,0,0.1,0.1,0.2,0.2c0.1,0.1,0.2,0.3,0.3,0.3
			s0.2-0.1,0.2-0.2s0-0.2-0.1-0.3c0,0,0,0,0-0.1l0,0c0.2-0.1,0.3-0.1,0.4,0c0.1,0,0.1,0.1,0.1,0.3c0,0.1,0,0.3-0.1,0.3v0.2l0,0
			c0.2,0,0.2-0.1,0.2-0.1h0.1c0,0,0,0-0.1,0s-0.2,0-0.3,0.1c0,0,0,0.1,0.1,0.1c0.1,0.1,0.2,0.1,0.3,0c0.2-0.1,0.2-0.2,0.2-0.2
			s0,0,0-0.1c0,0,0,0,0.1,0h0.1c0,0,0,0,0-0.1c0.1-0.1,0.1-0.3-0.1-0.4c0,0,0,0,0-0.1c0,0,0-0.1,0.1-0.1c0.2,0,0.3,0,0.4,0
			c0,0,0.1,0,0.2,0c0,0,0-0.1,0.1-0.1c0.1-0.1,0.1-0.1,0.2-0.2c0.1-0.2,0.2-0.2,0.4-0.2c0.1,0,0.2,0,0.3,0c0.3,0,0.4-0.1,0.4-0.1
			h0.1c0,0,0.1,0.1,0,0.1l-0.2,0.4c0,0-0.1,0.1-0.1,0c-0.1,0-0.3,0-0.4,0c0,0.1,0,0.2,0,0.2s0.1,0.1,0.2,0c0.1,0,0.2,0,0.2,0v0.1
			h0.1c0.5-0.1,0.5-0.6,0.5-0.6s0,0,0-0.1c0,0,0,0,0.1,0c0,0,0.4,0.1,0.4,0.4l0,0c0,0.4,0.2,0.8,0.6,0.8h0.2l0,0c0,0,0,0,0.1-0.1
			s0-0.4,0-0.4v-0.1c0,0,0,0,0.1,0c0,0,0.4,0.1,0.4,0.4C-175.4,505.1-175.6,505.4-175.9,505.6z"/>
		<path id="XMLID_1076_" class="st0" d="M-161,489.1c0-1.8-1.5-3.2-3.2-3.2h-36.6c-1.8,0-3.2,1.5-3.2,3.2v36.5
			c0,1.8,1.5,3.2,3.2,3.2h36.5c1.8,0,3.2-1.5,3.2-3.2L-161,489.1L-161,489.1L-161,489.1z M-175.6,495.4l0.7,0.2l-0.1,0.2l-0.7-0.2
			L-175.6,495.4z M-177.1,495.1h0.1l0.5,0.1l-0.1,0.3l-0.6-0.1L-177.1,495.1z M-177.2,495.7l1.7,0.3l-0.1,0.2l-1.6-0.2L-177.2,495.7
			L-177.2,495.7z M-175.4,498.8l0.1-0.3l0.7,0.1l-0.1,0.3L-175.4,498.8z M-174.8,499.2v0.2l-0.3-0.1v-0.2L-174.8,499.2z
			 M-175.3,498.2v-0.3h0.2v0.3H-175.3z M-174.8,498.3V498h0.2v0.3H-174.8z M-175.2,497.6l0.1-0.3l0.7,0.1v0.3L-175.2,497.6z
			 M-174.9,497.1l-1.2-0.2l0.1-0.3l1.2,0.2L-174.9,497.1z M-189.3,498.9l-0.1-0.3l0.7-0.1l0.1,0.3L-189.3,498.9z M-188.9,499.4
			l-0.3,0.1v-0.2l0.3-0.1V499.4z M-189.6,497.7v-0.3l0.7-0.1l0.1,0.3L-189.6,497.7z M-188.8,497.9v0.3h-0.2v-0.3H-188.8z
			 M-189.3,498v0.3h-0.3V498H-189.3z M-189.2,497.1l-0.1-0.3l1.2-0.2l0.1,0.3L-189.2,497.1z M-188,498.7l-0.3,0.1l-0.2-1.5l0.3-0.1
			L-188,498.7z M-187.6,498.9l0.1,0.3l-1,0.1V499L-187.6,498.9z M-187,497l0.1,0.3l-0.9,0.1v-0.3L-187,497z M-187.7,496.5l0.4-0.1
			l0.1,0.3l-0.4,0.1L-187.7,496.5z M-186.1,497.5v0.3l-1.3,0.2v-0.3L-186.1,497.5z M-187.7,498h-0.2v-0.3h0.2V498z M-187.7,498.6
			l-0.1-0.3l0.9-0.1v0.3L-187.7,498.6z M-186.1,498.6l0.1,0.4l-1.2,0.2v-0.3L-186.1,498.6z M-186.5,498.4l-0.1-0.3l1.2-0.1l0.1,0.3
			L-186.5,498.4z M-185.8,497.4l1.2-0.1v0.3l-1.2,0.1V497.4z M-184.5,498.5v0.3l-1.2,0.1v-0.3L-184.5,498.5z M-184.9,498.2v-0.3
			l1.2-0.1v0.3L-184.9,498.2z M-183,495.9v0.3h-1v-0.3H-183z M-184.7,495.8v-0.3l0.8-0.1v0.3L-184.7,495.8z M-180,496v0.3h-1V496
			H-180z M-180.1,495.7v-0.3l0.8,0.1v0.3L-180.1,495.7z M-180.6,496.9h-0.9v-0.3h0.9V496.9z M-179.8,497.3v0.3l-1.3-0.1v-0.3
			L-179.8,497.3z M-181.5,497.2v0.3h-0.1v-0.3H-181.5z M-180.6,495.7h-1.3v-0.3h1.3V495.7z M-181.4,495.9v0.3c-0.4,0-0.8,0-1.3,0
			v-0.3C-182.2,495.9-181.8,495.9-181.4,495.9z M-181.8,496.6v1.5h-0.4v-1.5H-181.8z M-183.5,495.7v-0.3h1.3v0.3H-183.5z
			 M-182.5,496.6v0.3h-0.9v-0.3H-182.5z M-182.5,497.2v0.3h-0.1v-0.3H-182.5z M-182.9,497.2v0.3l-1.3,0.1v-0.3L-182.9,497.2z
			 M-182.8,498.4v0.3l-1.3,0.1v-0.3L-182.8,498.4z M-183.4,498.1v-0.3h0.9v0.3H-183.4z M-181.5,498.4v0.3h-1v-0.3H-181.5z
			 M-181.6,498.1v-0.3h0.9v0.3H-181.6z M-181.2,498.4l1.3,0.1v0.3l-1.3-0.1V498.4z M-180.3,498.1v-0.3l1.2,0.1v0.3L-180.3,498.1z
			 M-179.5,497.6v-0.3l1.2,0.1v0.3L-179.5,497.6z M-179.6,498.5l0.7,0.1h0.4v0.3l-1.2-0.1L-179.6,498.5z M-178.8,498.3l0.1-0.3
			l1.2,0.1l-0.1,0.3L-178.8,498.3z M-176.1,497.1v0.3l-0.9-0.1V497L-176.1,497.1z M-176.8,496.7l0.1-0.3l0.4,0.1l-0.1,0.3
			L-176.8,496.7z M-176.2,497.7v0.3h-0.2v-0.3H-176.2z M-176.6,497.7v0.3l-1.4-0.2v-0.3L-176.6,497.7z M-178,498.6l1.2,0.2v0.3
			l-1.2-0.1V498.6z M-177.2,498.5v-0.3l0.9,0.1l-0.1,0.3L-177.2,498.5z M-176.4,498.9l1,0.2v0.3l-1-0.1V498.9z M-176,498.7l0.2-1.5
			l0.3,0.1l-0.2,1.5L-176,498.7z M-178.6,496.8l1.1,0.1v0.3l-1.1-0.2V496.8z M-179,497l-1.2-0.1v-0.3l1.2,0.1V497z M-179.4,494.8
			h0.2v0.3h-0.2V494.8z M-181,494.7l1.2,0.1v0.3l-1.2-0.1V494.7z M-181.3,494.7v0.3c-0.3,0-0.5,0-0.7,0s-0.4,0-0.7,0v-0.3H-181.3z
			 M-183.1,494.7v0.3l-1.2,0.1v-0.3L-183.1,494.7z M-184.6,494.8v0.3h-0.2v-0.3H-184.6z M-183.8,496.6v0.3l-1.2,0.1v-0.3
			L-183.8,496.6z M-185.4,496.8v0.3l-1.1,0.1v-0.3L-185.4,496.8z M-186.8,496l-1.7,0.3l-0.1-0.2l1.7-0.3L-186.8,496z M-187.1,495.1
			h0.1v0.3l-0.6,0.1l-0.1-0.3L-187.1,495.1z M-188.5,495.4l0.1,0.2l-0.7,0.2l-0.1-0.2L-188.5,495.4z M-190.8,496l0.7-0.2l0.1,0.3
			l-0.7,0.2L-190.8,496z M-190.6,496.6l1.7-0.4l0.1,0.2l-1.7,0.4L-190.6,496.6z M-189.8,496.9l0.2-0.1l0.1,0.3l-0.2,0.1
			L-189.8,496.9z M-175,513.1c0,1.8-0.7,3.5-2,4.8s-3.1,2.1-5,2.1s-3.6-0.8-4.9-2.1c-1.3-1.3-2-3-2-4.8v-10.2h14v10.2H-175z
			 M-182.1,499.9L-182.1,499.9c0.7,0,1.2,0.3,1.6,0.9c0.2,0.4,0.3,0.8,0.4,1.2c-0.1,0-0.2,0-0.3,0c-0.1-0.2-0.1-0.5-0.3-0.8
			c-0.3-0.7-0.8-1.1-1.4-1.1l0,0c-0.4,0-0.8,0.2-1.1,0.6s-0.5,1-0.6,1.3c-0.1,0-0.2,0.1-0.3,0.1
			C-183.9,501.3-183.4,499.9-182.1,499.9z M-183.2,499.7h0.3c-0.1,0.1-0.2,0.1-0.3,0.2V499.7z M-181.2,499.7h0.3v0.2
			C-180.9,499.8-181,499.8-181.2,499.7z M-179.4,501v0.3h-0.6c0-0.1-0.1-0.2-0.1-0.3H-179.4z M-180.3,500.6
			c-0.1-0.1-0.1-0.2-0.2-0.3h0.4v0.3H-180.3z M-175.1,502.2l-0.1,0.3c-1.6-0.2-3.1-0.4-4.6-0.5c0-0.1-0.1-0.3-0.1-0.4
			C-178.3,501.7-176.7,501.9-175.1,502.2z M-179.1,501l1.1,0.1v0.3l-1.1-0.1V501z M-177.7,501.4v-0.3l1.1,0.1v0.3L-177.7,501.4z
			 M-175.5,501.5l-0.1,0.3l-0.7-0.1l0.1-0.3L-175.5,501.5z M-175.6,501.2l0.1-0.3h0.1l-0.1,0.3H-175.6z M-175.3,500.6l-0.7-0.1v-0.3
			l0.7,0.1V500.6z M-175.8,500.8v0.3l-1.1-0.1v-0.3L-175.8,500.8z M-176.4,500.4l-1.1-0.1V500l1,0.1L-176.4,500.4z M-177.2,500.6
			v0.3l-1.1-0.1v-0.3L-177.2,500.6z M-177.8,500.2l-1.2-0.1v-0.3l1.2,0.1V500.2z M-178.5,500.4l-0.1,0.3l-1.2-0.1v-0.3L-178.5,500.4
			z M-180.5,500v-0.3l1.2,0.1v0.2L-180.5,500L-180.5,500z M-182,501.9L-182,501.9L-182,501.9c-0.3,0-0.7,0-1,0
			c0.1-0.4,0.4-1.3,1.1-1.5c0.5-0.1,0.9,0.4,1.3,1.5C-181.1,501.9-182,501.9-182,501.9L-182,501.9L-182,501.9z M-184.1,501.1
			c0,0,0,0.1-0.1,0.1h-0.5v-0.3h0.6C-184,501-184.1,501.1-184.1,501.1z M-184,500.7v-0.3h0.3c-0.1,0.1-0.2,0.2-0.2,0.3H-184z
			 M-183.5,500h-1.2v-0.2l1.2-0.1V500z M-184.3,500.4v0.3l-1.2,0.1l-0.1-0.3L-184.3,500.4z M-184.9,501v0.3l-1.1,0.1v-0.3
			L-184.9,501z M-186.2,500.2V500l1.2-0.1v0.3L-186.2,500.2L-186.2,500.2z M-185.8,500.5v0.3l-1.1,0.1v-0.3L-185.8,500.5z
			 M-186.3,501.4l-1.1,0.1v-0.3l1.1-0.1V501.4z M-187.7,500.4v-0.3l1-0.1v0.3L-187.7,500.4z M-187.2,500.7v0.3l-1.1,0.2v-0.3
			L-187.2,500.7z M-187.8,501.4l0.1,0.3l-0.7,0.1l-0.1-0.3L-187.8,501.4z M-188.6,501.2l-0.1-0.3h0.1l0.1,0.3H-188.6z M-188.7,500.6
			l-0.1-0.3l0.8-0.1v0.3L-188.7,500.6z M-184.2,501.6c0,0.1-0.1,0.2-0.1,0.4c-1.4,0.1-2.9,0.3-4.5,0.5l-0.1-0.3
			C-187.4,501.9-185.8,501.7-184.2,501.6z M-174.5,500.2c-2.9-0.5-5.2-0.8-7.5-0.8s-4.7,0.3-7.5,0.8l-0.1-0.3
			c5.3-1.1,9.9-1.1,15.2,0L-174.5,500.2z M-174.3,497.2l-0.2-0.1l0.1-0.3l0.2,0.1L-174.3,497.2z M-173.5,496.8l-1.7-0.4l0.1-0.2
			l1.7,0.4L-173.5,496.8z M-173.3,496.3l-0.7-0.2l0.1-0.3l0.7,0.2L-173.3,496.3z"/>
		<path id="XMLID_1189_" class="st0" d="M-184.3,516.2c0,1.2,1,2.3,2.3,2.3c0.3,0,0.6-0.1,0.9-0.2l-2.9-3.2
			C-184.2,515.4-184.3,515.8-184.3,516.2z"/>
		<path id="XMLID_1191_" class="st0" d="M-183.9,504.1C-184,504.1-184,504.1-183.9,504.1c-0.1,0-0.1,0-0.2,0l0,0v0.1
			c0,0,0.1,0,0.2,0c0.1,0,0.2-0.1,0.2-0.1l0,0l0,0C-183.8,504.1-183.9,504.1-183.9,504.1z"/>
		<path id="XMLID_1192_" class="st0" d="M-181.8,514h-0.2v-1.1h2v-1h-2v-1l0,0v1h-2v1h2v1.1h-0.3c-0.3,0.1-0.7,0.2-0.9,0.4l2.9,3.3
			c0.4-0.4,0.4-0.9,0.4-1.5C-179.8,515.1-180.7,514.2-181.8,514z"/>
	</g>
	<g id="XMLID_1196_">
		<path id="XMLID_1197_" class="st0" d="M-124.5,505v-0.1c0,0-0.3-0.1-0.6-0.1l0,0l0,0l0,0l0,0c-0.1,0-0.1,0-0.1,0s0,0.1,0,0.2
			s0.3,0.2,0.5,0.1C-124.6,505.1-124.5,505-124.5,505z"/>
		<path id="XMLID_1199_" class="st0" d="M-124.3,505.6L-124.3,505.6c-0.1,0.1-0.2,0.2-0.4,0.3c0,0-0.1,0.1-0.2,0.1l0,0
			c0,0,0.1,0.1,0.3,0C-124.3,505.9-124.3,505.8-124.3,505.6L-124.3,505.6z"/>
		<path id="XMLID_1200_" class="st0" d="M-127.9,514L-127.9,514l-0.1-1.1h2v-1h-2v-1h-1v1h-1v1h1v1.1h0.2c-0.3,0.1-0.5,0.2-0.7,0.4
			l3,3.3c0.4-0.4,0.5-0.9,0.5-1.5C-126,515.1-126.8,514.2-127.9,514z"/>
		<path id="XMLID_1201_" class="st0" d="M-130.4,516.2c0,1.2,1,2.3,2.3,2.3c0.3,0,0.6-0.1,0.9-0.2l-2.8-3.2
			C-130.3,515.4-130.4,515.8-130.4,516.2z"/>
		<path id="XMLID_1204_" class="st0" d="M-121,502.9h-14v7h14V502.9z M-134.5,505.2c0.1-0.2,0.2-0.2,0.3-0.3c0.1,0,0.2,0,0.3,0.1
			c0,0,0,0,0.1,0.1c0,0.1,0.1,0.1,0.2,0.2h0.1c0,0,0,0,0-0.1s0-0.2,0.1-0.2h0.1l0,0c0-0.1,0-0.3-0.1-0.3v-0.1h0.1
			c0.3,0.1,0.3,0.4,0.3,0.5c0.1,0.1,0.1,0.1,0.2,0.2c0,0.1,0,0.2-0.1,0.3c-0.1,0.1-0.1,0.2-0.1,0.3s0.1,0.2,0.3,0.3
			c0.2,0.1,0.4,0.1,0.6,0.2c0.2,0,0.3,0,0.4,0.1v0.1c0,0.1-0.1,0.2-0.2,0.3s-0.1,0.2-0.2,0.2c-0.1,0.1-0.2,0.1-0.2,0.1s0,0-0.1,0
			s-0.1-0.1-0.1-0.1s0-0.1,0.1-0.1l0,0c0,0,0,0,0-0.1c-0.1-0.1-0.3-0.1-0.4-0.1c0,0,0,0-0.1,0c0,0.1,0,0.1,0.1,0.1l0.1,0.1
			c0,0,0,0.1-0.1,0.1c-0.1,0.1-0.2,0.1-0.3,0.1c0,0-0.1-0.1-0.1-0.2c0,0,0,0,0-0.1c0,0,0,0-0.1,0h-0.1c-0.1,0-0.2-0.1-0.2-0.1
			c0-0.1,0-0.1,0-0.2s0.1-0.1,0.1-0.2l0,0c0,0-0.1,0-0.1-0.1l0,0l0,0c-0.1,0.1-0.2,0.1-0.4,0.1l0,0c-0.1,0-0.1,0.2-0.1,0.3v0.1v-0.1
			c-0.2-0.2-0.2-0.5-0.1-0.6V506c0-0.1,0.1-0.2,0.2-0.3c0-0.1,0.1-0.2,0.1-0.2s-0.1-0.1-0.2-0.1s-0.1,0-0.1,0
			c-0.1,0.1-0.2,0.1-0.3,0C-134.5,505.6-134.6,505.4-134.5,505.2z M-122,505.6c-0.2,0.1-0.4,0.1-0.5,0c-0.1,0-0.1-0.1-0.1-0.2
			c-0.1,0-0.2,0-0.3,0h-0.1v-0.1c0-0.1,0-0.1,0-0.1s-0.1,0-0.2,0c-0.2,0-0.3,0-0.3,0.1s0,0.2,0,0.3c0.1,0.2,0.3,0.1,0.3,0
			c0,0,0,0,0.1,0c0,0,0,0,0,0.1s0,0.3-0.2,0.4c-0.1,0-0.1,0-0.1,0.1l0,0c0,0-0.1,0.1-0.2,0.1s-0.1-0.1-0.2-0.1
			c-0.1-0.1-0.1-0.1-0.2-0.1s-0.1,0.1-0.2,0.2s-0.1,0.2-0.2,0.2s-0.3,0.1-0.7,0c-0.3-0.1-0.8,0.1-0.8,0.2c0,0,0,0,0,0.1v0.1
			c0,0,0.1,0.1,0.6,0.1s0.5,0,0.5,0s0-0.1,0.1-0.1s0.1-0.1,0.1-0.1v-0.1h0.1l0,0c0,0.1,0.1,0.4-0.1,0.5c0.1,0,0.1,0,0.2,0
			s0.4-0.3,0.5-0.4c0,0,0-0.1,0.1,0c0,0,0.1,0,0.1,0.1c0,0.2,0,0.3-0.1,0.5c0,0.1,0,0.2,0,0.2c0.1,0,0.2,0,0.3,0
			c0.1,0,0.1-0.1,0.2-0.2c0.1-0.2,0.2-0.4,0.2-0.4s0-0.1,0.1-0.1h0.1c0,0,0.2,0.4,0,0.6c-0.1,0.1,0,0.2,0,0.2s0.1,0,0.2,0
			c0.2-0.1,0.1-0.3,0.1-0.3v-0.1h0.1c0,0,0.2,0.2,0.2,0.5s0,0.3,0.1,0.3s0.2,0.1,0.2,0.2v0.1l0,0c0.1,0.1,0,0.2,0,0.3c0,0,0,0,0,0.1
			v0.1c0,0.1,0,0.1,0,0.1s-0.1,0-0.1-0.1s-0.1-0.1-0.1-0.2c-0.1,0-0.1-0.1-0.1-0.1v-0.1c-0.1,0-0.2,0.1-0.3,0.1c0,0-0.1,0.1,0,0.2
			c0,0.2-0.1,0.5-0.2,0.6l-0.1,0.1c-0.1,0-0.1-0.1-0.1-0.2s0-0.1-0.1-0.1c0,0-0.1,0-0.1,0.2v0.1c0,0.1-0.1,0.2-0.2,0.2s-0.1,0-0.2,0
			c-0.1,0.1-0.2,0.1-0.2,0.1h-0.1v-0.1c0.1-0.1,0-0.2,0-0.2c-0.1,0-0.1-0.1-0.2-0.1s-0.1-0.1-0.1-0.2s0.1-0.2,0.2-0.2
			s0.3-0.2,0.2-0.4c0-0.1-0.1-0.2-0.1-0.3h-0.1h-0.1h-0.1c-0.1,0-0.1,0.1-0.1,0v-0.1c0-0.1,0.1-0.1,0.1-0.2v-0.1
			c-0.1,0-0.1-0.1-0.1-0.1s0,0-0.1,0s-0.3,0-0.3,0s0,0.1,0,0.2c0,0.4-0.1,0.5-0.3,0.7h-0.1c0,0,0,0,0-0.1s0-0.1-0.1-0.2
			c0,0-0.1,0-0.3,0.3c-0.1,0.1-0.2,0.2-0.3,0.3h-0.1v-0.1c0.1-0.3,0.1-0.4,0.1-0.5l0,0c-0.1,0-0.1,0.1-0.2,0.2s-0.1,0.2-0.2,0.2
			c0,0-0.1,0-0.1,0.1c-0.1,0.1-0.1,0.1-0.2,0.1l0,0c-0.3,0.2-0.6,0.2-0.8,0.1c-0.2,0-0.3-0.1-0.4-0.4c0-0.1-0.1-0.2-0.2-0.2
			c-0.2,0-0.4,0.2-0.4,0.3s-0.1,0.1-0.1,0.2v0.1c0,0.1,0.1,0.3,0.2,0.3l0.1,0.1h-0.1c-0.3,0-0.5-0.2-0.6-0.4c-0.3,0-0.4-0.1-0.5-0.3
			c0-0.2,0-0.3,0-0.4c0.1-0.1,0.2-0.1,0.4-0.1c0.3,0,0.4,0,0.4,0c0-0.1,0-0.1,0-0.2c0.1,0,0.1,0,0.2,0c0.1,0,0.4,0.1,0.6,0l0,0
			c0-0.1,0-0.3-0.1-0.4l0,0c-0.1,0-0.2,0-0.2,0.1l0,0c0,0.1-0.1,0.1-0.2,0.1c-0.1,0-0.2,0.1-0.2,0.1l0,0l0,0c-0.1-0.1,0-0.3,0-0.3
			c0-0.1,0-0.1,0-0.2s0.1-0.1,0.2-0.2c0.1,0,0.4-0.2,0.6-0.3c0.2-0.1,0.3-0.2,0.4-0.2c0.1-0.1,0.2,0,0.3,0.1
			c0.1,0.1,0.2,0.1,0.3,0.1c0.2,0,0.4,0,0.4,0.1c0,0,0,0.1,0,0.2s-0.1,0.1-0.2,0.2s-0.2,0.3-0.2,0.4c0.1,0.2,0.3,0.7,0.5,0.7l0,0
			c0.2,0,0.3-0.2,0.4-0.4c0-0.2-0.1-1.1-0.6-1.5c-0.6-0.3-1.2,0-1.4,0.2c-0.1,0.1-0.5,0.3-0.6,0.2V507c0,0-0.1,0-0.1,0.1
			c-0.1,0.1-0.2,0.1-0.2,0.1c-0.1,0-0.1,0-0.2,0l0,0c0,0.1,0.1,0.2,0.1,0.3s0.1,0.1,0.1,0.2c0,0,0,0,0.1,0c0,0,0.1,0,0.1,0.1
			s0,0.1-0.1,0.2s-0.4,0-0.6-0.1c-0.6,0.2-0.8,0.1-0.9,0.1s-0.1,0.3,0,0.6v0.1h-0.1c-0.3-0.3-0.6-0.6-0.7-0.6
			c-0.1,0-0.1,0.4-0.1,0.8c0,0,0,0.1-0.1,0.1h-0.1c-0.1-0.2-0.3-0.6-0.4-0.7c-0.1,0-0.1-0.1-0.1,0l-0.1,0.1c0,0.1,0,0.2,0.1,0.3l0,0
			c0.1,0.1,0.1,0.2,0.1,0.2s0,0.1-0.1,0.1s-0.2,0-0.3-0.1s-0.2-0.2-0.3-0.2l0,0v0.1c0,0.1,0,0.1,0,0.2c0,0.2-0.1,0.3-0.2,0.3
			c0,0.1-0.1,0.3-0.3,0.4h-0.1v-0.1c0,0,0.1-0.1,0.1-0.3h-0.1c-0.1-0.1-0.1-0.2-0.1-0.2l0,0c0,0,0,0-0.2,0h-0.1
			c-0.2,0-0.3,0-0.4,0.1c-0.1,0.1-0.2,0.4-0.3,0.4l-0.1,0.2l0,0c-0.1,0-0.2-0.1-0.3,0l-0.1-0.1v-0.1c0-0.2,0.1-0.4,0.2-0.4
			c0-0.1,0-0.2,0-0.3s0.1-0.1,0.2-0.1h0.1h0.1l0,0l0,0c0,0-0.2-0.1-0.4-0.1c-0.1,0-0.2,0-0.3-0.1c0,0-0.1-0.1-0.1-0.2v-0.1
			c-0.1,0-0.2,0.1-0.2,0.1h-0.1v-0.1c0.1-0.3,0.4-0.4,0.6-0.3c0.1,0,0.1,0.1,0.1,0.1c0.1,0,0.2,0,0.3,0.1c0,0.1,0.1,0,0.1,0l0.1-0.1
			c-0.1-0.2-0.1-0.3-0.1-0.4s0.1-0.1,0.1-0.1v-0.1c0-0.1-0.1-0.2-0.2-0.3l-0.1-0.1h0.1c0.2,0,0.3,0.1,0.4,0.2
			c0.1,0.1,0.1,0.1,0.1,0.2c0.1,0,0.1,0.1,0.2,0.2c0.2,0.4,0.4,0.3,0.5,0.2c0,0,0.1-0.1,0.1-0.3c0-0.1,0-0.1,0-0.2s0.1-0.1,0.3-0.1
			c0.1,0,0.3,0,0.4,0c0.1,0,0.1-0.1,0.1-0.4l0,0v-0.1c0,0,0,0,0.1,0c0,0,0.1,0,0.2-0.1l0.1-0.1c0-0.1-0.1-0.2-0.2-0.2
			c-0.1-0.2-0.2-0.2-0.2-0.3c0,0,0-0.1,0.1-0.1s0.2,0,0.4,0.2c0.1,0.1,0.2,0.2,0.3,0.2s0.1,0,0.1,0s0-0.1-0.1-0.1
			c-0.3-0.1-0.5-0.2-0.5-0.4v-0.1c0.1,0,0.1,0,0.2,0s0.2,0.1,0.4,0.1c0.1,0,0.1,0,0.1-0.1s0-0.3-0.1-0.4s-0.3-0.1-0.5-0.1
			c-0.3,0-0.7-0.1-1.1-0.3c-0.5-0.4-0.8-1-0.9-1.3c0-0.1,0.1-0.3,0.2-0.3c0.2,0,0.5,0.1,0.6,0.5c0.1,0.5,0.6,0.9,1,0.9
			c0.1,0,0.3,0,0.3-0.1c0.1,0,0.1-0.1,0.1-0.1c0-0.1,0-0.1-0.1-0.2c0,0-0.1,0-0.2,0c-0.2,0-0.5,0-0.5-0.4c0-0.2,0.2-0.2,0.4-0.2
			c0.1,0,0.1,0,0.2,0c0,0,0,0,0-0.1s0-0.1,0.1-0.2s0.4-0.1,0.5-0.1h0.1h0.1c0,0,0.1-0.1,0.2-0.1c0.3,0,0.3,0.4,0.3,0.6v0.1l0,0h0.1
			c0,0,0.2,0.1,0.1,0.3c0,0.1,0,0.1,0.1,0.1s0.1,0.1,0.1,0.2s-0.1,0.2-0.3,0.1c-0.1,0-0.2,0-0.2,0s0,0.1,0,0.2l0,0
			c0,0.1,0.1,0.2,0.6,0.3c0.1,0,0.2,0.1,0.2,0.2s-0.1,0.3-0.3,0.4c-0.1,0.1-0.1,0.1-0.1,0.1c0,0.1-0.1,0.1-0.2,0.1s-0.1,0-0.1,0
			s0,0,0,0.1c0.1,0.1,0.1,0.2,0.2,0.4c0,0.1,0.1,0.2,0.1,0.3s0.2,0,0.3,0l0,0h0.1l0.1-0.1c0.4-0.5,1.2-0.9,1.4-0.9
			c0.2,0,0.3,0,0.4,0.1c0.1,0,0.2,0.1,0.3,0.1c0.2,0,0.6-0.2,0.9-0.3l0.2-0.1c0.2-0.1,0.5-0.3,0.5-0.3l0,0c-0.1,0-0.3,0-0.4,0
			s-0.2-0.2-0.2-0.2s0-0.1-0.1-0.1c0,0,0,0,0,0.1s0,0.1-0.1,0.1c0,0,0,0-0.1,0.1c-0.4,0.3-0.6,0.4-0.7,0.4l0,0
			c-0.1,0-0.2-0.1-0.2-0.2s-0.1-0.1-0.1-0.1c-0.1,0-0.4,0.1-0.5,0.1h-0.1v-0.1c0-0.1,0.1-0.2,0.1-0.3l0,0c-0.1,0-0.3,0-0.4,0.1
			c-0.1,0-0.1,0.1-0.1,0.1c0,0.1,0,0.1,0,0.1v0.1h-0.1c0,0-0.2-0.1-0.3-0.3c0-0.1,0-0.3,0.1-0.4c0.1-0.2,0.2-0.2,0.3-0.2l0,0
			c0,0,0,0.1,0,0s0-0.1-0.1-0.2s-0.3-0.1-0.4,0h-0.1v-0.1c0.2-0.3,0.4-0.5,0.6-0.4c0.1,0,0.1,0.1,0.2,0.2c0.1,0.1,0.2,0.3,0.3,0.3
			c0.1,0,0.2-0.1,0.2-0.2s0-0.2-0.1-0.3c0,0,0,0,0-0.1l0,0c0.2-0.1,0.3-0.1,0.4,0c0.1,0,0.1,0.1,0.1,0.3c0,0.1,0,0.3-0.1,0.3v0.2
			l0,0c0.2,0,0.2-0.1,0.2-0.1h0.1c0,0,0,0-0.1,0s-0.2,0-0.3,0.1c0,0,0,0.1,0.1,0.1c0.1,0.1,0.2,0.1,0.3,0c1.2,0.4,1.2,0.3,1.2,0.3
			s0,0,0-0.1c0,0,0,0,0.1,0h0.1c0,0,0,0,0-0.1c0.1-0.1,0.1-0.3-0.1-0.4c0,0,0,0,0-0.1c0,0,0-0.1,0.1-0.1c0.2,0,0.3,0,0.4,0
			c0,0,0.1,0,0.2,0c0,0,0-0.1,0.1-0.1c0.1-0.1,0.1-0.1,0.2-0.2c0.1-0.2,0.2-0.2,0.4-0.2c0.1,0,0.2,0,0.3,0c0.3,0,0.4-0.1,0.4-0.1
			h0.1c0,0,0.1,0.1,0,0.1l-0.3,0.4c0,0-0.1,0.1-0.1,0c-0.1,0-0.3,0-0.4,0c0,0.1,0,0.2,0,0.2s0.1,0.1,0.2,0c0.1,0,0.2,0,0.2,0v0.1
			h0.1c0.5-0.1,0.5-0.6,0.5-0.6s0,0,0-0.1c0,0,0,0,0.1,0c0,0,0.4,0.1,0.4,0.4l0,0c0,0.4,0.3,0.8,0.6,0.8h0.2l0,0c0,0-0.1,0,0-0.1
			s0-0.4,0-0.4s-0.1-0.1,0-0.1l0,0c0,0,0.4,0.1,0.4,0.4C-121.6,505.1-121.7,505.4-122,505.6z"/>
		<path id="XMLID_1206_" class="st0" d="M-127,509c-0.1-0.2-0.1-0.3-0.2-0.3h-0.1c0,0,0,0.1,0,0.2s0.1,0.2,0.1,0.2
			S-127.2,509.1-127,509c0,0.2,0.1,0.2,0.3,0.2c0,0-0.1-0.1-0.1-0.2C-127,509.1-127,509.1-127,509z"/>
		<path id="XMLID_1207_" class="st0" d="M-130.1,504.1L-130.1,504.1c-0.1,0-0.1,0-0.2,0l0,0v0.1c0,0,0.1,0,0.2,0
			c0.1,0,0.2-0.1,0.2-0.1l0,0l0,0C-130,504.1-130.1,504.1-130.1,504.1z"/>
		<path id="XMLID_1210_" class="st0" d="M-107,489.1c0-1.8-1.5-3.2-3.2-3.2h-36.6c-1.8,0-3.2,1.5-3.2,3.2v36.5
			c0,1.8,1.5,3.2,3.2,3.2h36.5c1.8,0,3.2-1.5,3.2-3.2L-107,489.1L-107,489.1L-107,489.1z M-121.7,495.4l0.7,0.2l-0.1,0.2l-0.7-0.2
			L-121.7,495.4z M-123.2,495.1L-123.2,495.1l0.6,0.1l-0.1,0.3l-0.6-0.1L-123.2,495.1z M-123.3,495.7l1.7,0.3l-0.1,0.2l-1.7-0.2
			L-123.3,495.7z M-121.5,498.8l0.1-0.3l0.7,0.1l-0.1,0.3L-121.5,498.8z M-121,499.2v0.2l-0.3-0.1v-0.2L-121,499.2z M-121.4,498.2
			v-0.3h0.2v0.3H-121.4z M-121,498.3V498h0.2v0.3H-121z M-121.4,497.6l0.1-0.3l0.7,0.1v0.3L-121.4,497.6z M-121,497.1l-1.2-0.2
			l0.1-0.3l1.2,0.2L-121,497.1z M-135.5,498.9l-0.1-0.3l0.7-0.1l0.1,0.3L-135.5,498.9z M-135,499.4l-0.3,0.1v-0.2l0.3-0.1V499.4z
			 M-135.7,497.7v-0.3l0.7-0.1l0.1,0.3L-135.7,497.7z M-135,497.9v0.3h-0.2v-0.3H-135z M-135.4,498v0.3h-0.3V498H-135.4z
			 M-135.3,497.1l-0.1-0.3l1.2-0.2l0.1,0.3L-135.3,497.1z M-134.2,498.7l-0.3,0.1l-0.2-1.5l0.3-0.1L-134.2,498.7z M-133.8,498.9
			l0.1,0.3l-1,0.1V499L-133.8,498.9z M-133.2,497l0.1,0.3l-0.9,0.1v-0.3L-133.2,497z M-133.9,496.5l0.4-0.1l0.1,0.3l-0.4,0.1
			L-133.9,496.5z M-132.3,497.5v0.3l-1.3,0.2v-0.3L-132.3,497.5z M-133.8,498h-0.2v-0.3h0.2V498z M-133.9,498.6l-0.1-0.3l0.9-0.1
			v0.3L-133.9,498.6z M-132.3,498.6l0.1,0.3l-1.2,0.2v-0.3L-132.3,498.6z M-132.6,498.4l-0.1-0.3l1.2-0.1l0.1,0.3L-132.6,498.4z
			 M-131.9,497.4l1.2-0.1v0.3l-1.2,0.1V497.4z M-130.7,498.5v0.3l-1.2,0.1v-0.3L-130.7,498.5z M-131.1,498.2v-0.3l1.2-0.1v0.3
			L-131.1,498.2z M-129.2,495.9v0.3h-1v-0.3H-129.2z M-130.9,495.8v-0.3l0.8-0.1v0.3L-130.9,495.8z M-126.2,496v0.3h-1V496H-126.2z
			 M-126.3,495.7v-0.3l0.8,0.1v0.3L-126.3,495.7z M-126.8,496.9h-0.9v-0.3h0.9V496.9z M-126,497.3v0.3l-1.3-0.1v-0.3L-126,497.3z
			 M-127.6,497.2v0.3h-0.1L-127.6,497.2L-127.6,497.2z M-126.7,495.7h-1.3v-0.3h1.3V495.7z M-127.5,495.9v0.3c-0.4,0-0.8,0-1.3,0
			v-0.3C-128.4,495.9-128,495.9-127.5,495.9z M-128,496.6v1.5h-0.4v-1.5H-128z M-129.7,495.7v-0.3h1.3v0.3H-129.7z M-128.7,496.6
			v0.3h-0.9v-0.3H-128.7z M-128.6,497.2v0.3h-0.1L-128.6,497.2L-128.6,497.2z M-129.1,497.2v0.3l-1.3,0.1v-0.3L-129.1,497.2z
			 M-129,498.4v0.3l-1.3,0.1v-0.3L-129,498.4z M-129.6,498.1v-0.3h0.9v0.3H-129.6z M-127.7,498.4v0.3h-1v-0.3H-127.7z M-127.7,498.1
			v-0.3h0.9v0.3H-127.7z M-127.4,498.4l1.3,0.1v0.3l-1.3-0.1V498.4z M-126.5,498.1v-0.3l1.2,0.1v0.3L-126.5,498.1z M-125.6,497.6
			v-0.3l1.2,0.1v0.3L-125.6,497.6z M-125.7,498.5l0.7,0.1h0.4v0.3l-1.2-0.1L-125.7,498.5z M-124.9,498.3l0.1-0.3l1.2,0.1l-0.1,0.3
			L-124.9,498.3z M-122.3,497.1v0.3l-0.9-0.1l0.1-0.3L-122.3,497.1z M-122.9,496.7l0.1-0.3l0.4,0.1l-0.1,0.3L-122.9,496.7z
			 M-122.3,497.7v0.3h-0.2v-0.3H-122.3z M-122.8,497.7v0.3l-1.4-0.2v-0.3L-122.8,497.7z M-124.1,498.6l1.2,0.2v0.3l-1.3-0.1
			L-124.1,498.6z M-123.4,498.5v-0.3l0.9,0.1l-0.1,0.3L-123.4,498.5z M-122.6,498.9l1,0.2v0.3l-1-0.1V498.9z M-122.2,498.7l0.2-1.5
			l0.3,0.1l-0.2,1.5L-122.2,498.7z M-124.8,496.8l1.1,0.1v0.3l-1.1-0.2V496.8z M-125.2,497l-1.2-0.1v-0.3l1.2,0.1V497z
			 M-125.6,494.8h0.2v0.3h-0.2V494.8z M-127.1,494.7l1.2,0.1v0.3l-1.3-0.1L-127.1,494.7z M-127.5,494.7v0.3c-0.3,0-0.5,0-0.7,0
			s-0.4,0-0.7,0v-0.3H-127.5z M-129.2,494.7v0.3l-1.2,0.1v-0.3L-129.2,494.7z M-130.8,494.8v0.3h-0.2v-0.3H-130.8z M-130,496.6v0.3
			l-1.2,0.1v-0.3L-130,496.6z M-131.6,496.8v0.3l-1.1,0.1v-0.3L-131.6,496.8z M-133,496l-1.7,0.3l-0.1-0.2l1.7-0.3L-133,496z
			 M-133.3,495.1L-133.3,495.1l0.1,0.3l-0.6,0.1l-0.1-0.3L-133.3,495.1z M-134.7,495.4l0.1,0.2l-0.7,0.2l-0.1-0.2L-134.7,495.4z
			 M-137,496l0.7-0.2l0.1,0.3l-0.7,0.2L-137,496z M-136.8,496.6l1.7-0.4l0.1,0.2l-1.7,0.4L-136.8,496.6z M-136,496.9l0.2-0.1
			l0.1,0.3l-0.2,0.1L-136,496.9z M-121,513.1c0,1.8-0.8,3.5-2.1,4.8c-1.3,1.3-3.2,2.1-5,2.1c-1.9,0-3.5-0.8-4.9-2.1
			c-1.3-1.3-2-3-2-4.8v-10.2h14V513.1z M-128.3,499.9C-128.3,499.9-128.2,499.9-128.3,499.9c0.7,0,1.2,0.3,1.6,0.9
			c0.2,0.4,0.3,0.8,0.4,1.2c-0.1,0-0.2,0-0.3,0c-0.1-0.2-0.1-0.5-0.3-0.8c-0.3-0.7-0.8-1.1-1.4-1.1l0,0c-0.4,0-0.8,0.2-1.1,0.6
			s-0.5,1-0.6,1.3c-0.1,0-0.2,0.1-0.3,0.1C-130,501.3-129.5,499.9-128.3,499.9z M-129.4,499.7h0.4c-0.1,0.1-0.2,0.1-0.3,0.2
			L-129.4,499.7z M-127.3,499.7h0.3v0.2C-127.1,499.8-127.2,499.8-127.3,499.7z M-125.6,501v0.3h-0.6c0-0.1-0.1-0.2-0.1-0.3H-125.6z
			 M-126.4,500.6c-0.1-0.1-0.1-0.2-0.2-0.3h0.4v0.3H-126.4z M-121.3,502.2l-0.1,0.3c-1.6-0.3-3.1-0.4-4.6-0.5c0-0.1-0.1-0.3-0.1-0.4
			C-124.5,501.7-122.9,501.9-121.3,502.2z M-125.3,501l1.1,0.1v0.3l-1.1-0.1V501z M-123.9,501.4v-0.3l1.1,0.1v0.3L-123.9,501.4z
			 M-121.7,501.5l-0.1,0.3l-0.7-0.1l0.1-0.3L-121.7,501.5z M-121.7,501.2l0.1-0.3h0.1L-121.7,501.2L-121.7,501.2z M-121.5,500.6
			l-0.7-0.1v-0.3l0.7,0.1V500.6z M-121.9,500.8v0.3l-1.1-0.1v-0.3L-121.9,500.8z M-122.5,500.4l-1.1-0.1V500l1,0.1L-122.5,500.4z
			 M-123.3,500.6v0.3l-1.1-0.1v-0.3L-123.3,500.6z M-124,500.2l-1.2-0.1v-0.3l1.2,0.1V500.2z M-124.7,500.4l-0.1,0.3h-1.2v-0.3
			H-124.7z M-126.7,500v-0.3l1.2,0.1v0.2L-126.7,500L-126.7,500z M-128.2,501.9L-128.2,501.9L-128.2,501.9c-0.3,0-0.7,0-1,0
			c0.1-0.4,0.4-1.3,1.1-1.5c0.5-0.1,1,0.4,1.3,1.5c-0.4,0-1.2,0-1.2,0l0,0H-128.2z M-130.2,501.1c0,0,0,0.1-0.1,0.1h-0.5v-0.3h0.6
			C-130.2,501-130.2,501.1-130.2,501.1z M-130.1,500.7v-0.3h0.3c-0.1,0.1-0.2,0.2-0.2,0.3H-130.1z M-129.7,500h-1.2v-0.2l1.2-0.1
			C-129.7,499.7-129.7,500-129.7,500z M-130.4,500.4v0.3l-1.2,0.1l-0.1-0.3L-130.4,500.4z M-131.1,501v0.3l-1.1,0.1v-0.3L-131.1,501
			z M-132.4,500.2V500l1.2-0.1v0.3L-132.4,500.2L-132.4,500.2z M-132,500.5v0.3l-1.1,0.1v-0.3L-132,500.5z M-132.5,501.4l-1.1,0.1
			v-0.3l1.1-0.1V501.4z M-133.9,500.4v-0.3l1-0.1v0.3L-133.9,500.4z M-133.4,500.7v0.3l-1.1,0.2v-0.3L-133.4,500.7z M-133.9,501.4
			l0.1,0.3l-0.7,0.1l-0.1-0.3L-133.9,501.4z M-134.8,501.2l-0.1-0.3h0.1V501.2L-134.8,501.2z M-134.9,500.6l-0.1-0.3l0.8-0.1v0.3
			L-134.9,500.6z M-130.4,501.6c0,0.1-0.1,0.2-0.1,0.4c-1.4,0.1-2.9,0.3-4.5,0.5l-0.1-0.3C-133.5,501.9-132,501.7-130.4,501.6z
			 M-120.6,500.2c-2.9-0.5-5.2-0.8-7.5-0.8c-2.3,0-4.7,0.3-7.5,0.8l-0.1-0.3c5.3-1.1,9.9-1.1,15.2,0L-120.6,500.2z M-120.5,497.2
			l-0.2-0.1l0.1-0.3l0.2,0.1L-120.5,497.2z M-119.6,496.8l-1.7-0.4l0.1-0.2l1.7,0.4L-119.6,496.8z M-119.5,496.3l-0.7-0.2l0.1-0.3
			l0.7,0.2L-119.5,496.3z"/>
	</g>
</g>
</svg>
