<?xml version="1.0" encoding="utf-8"?>
<!-- Generator: Adobe Illustrator 19.0.0, SVG Export Plug-In . SVG Version: 6.00 Build 0)  -->
<svg version="1.1" id="Layer_1" xmlns="http://www.w3.org/2000/svg" xmlns:xlink="http://www.w3.org/1999/xlink" x="0px" y="0px"
	 viewBox="-204 433 150 96" style="enable-background:new -204 433 150 96;" xml:space="preserve">
<style type="text/css">
	.st0{fill:#FFCC05;}
</style>
<g>
	<g>
		<g id="XMLID_920_">
			<g id="XMLID_919_">
				<path id="XMLID_938_" class="st0" d="M-146.5,460.4v50.2h-50.2v-50.2H-146.5 M-144.3,453.4h-54.6c-2.7,0-4.8,2.2-4.8,4.8v54.5
					c0,2.7,2.2,4.8,4.8,4.8h54.5c2.7,0,4.8-2.2,4.8-4.8v-54.4C-139.5,455.6-141.7,453.4-144.3,453.4L-144.3,453.4z"/>
			</g>
			<g id="XMLID_888_">
				<path id="XMLID_935_" class="st0" d="M-61,460.4v50.2h-50.2v-50.2H-61 M-58.8,453.4h-54.5c-2.7,0-4.8,2.2-4.8,4.8v54.5
					c0,2.7,2.2,4.8,4.8,4.8h54.5c2.7,0,4.8-2.2,4.8-4.8v-54.4C-54,455.6-56.2,453.4-58.8,453.4L-58.8,453.4z"/>
			</g>
			<g id="XMLID_876_">
				<path id="XMLID_877_" class="st0" d="M-169.6,507.9c-8.5-10.4-17.9-19.8-28.3-28.2c3.2-4.1,6.4-8.2,9.7-12.4
					c6.4,5.3,12,11.3,17.6,17.6c10.1-17.3,24.2-31,38.7-44.3c2.9,4.8,5.8,9.4,8.7,14.1C-142,469.2-156,488.2-169.6,507.9z"/>
			</g>
			<polygon id="XMLID_875_" class="st0" points="-63.8,470.5 -71.5,462.8 -86.3,477.6 -101.1,462.8 -108.8,470.5 -94.1,485.3 
				-108.8,500.1 -101.1,507.9 -86.3,493.1 -71.5,507.9 -63.8,500.1 -78.6,485.3 			"/>
		</g>
	</g>
</g>
</svg>
